<?xml version="1.0" standalone="no"?>
<!DOCTYPE svg PUBLIC "-//W3C//DTD SVG 20010904//EN"
 "http://www.w3.org/TR/2001/REC-SVG-20010904/DTD/svg10.dtd">
<svg version="1.0" xmlns="http://www.w3.org/2000/svg"
 width="766.000000pt" height="1280.000000pt" viewBox="0 0 766.000000 1280.000000"
 preserveAspectRatio="xMidYMid meet">

<g transform="translate(0.000000,1280.000000) scale(0.100000,-0.100000)"
fill="#000000" stroke="none">
<path d="M7200 12760 c0 -36 3 -40 25 -40 23 0 25 -4 25 -40 0 -37 2 -40 27
-40 l26 0 -4 -117 c-3 -65 -3 -101 -1 -80 4 50 22 48 22 -3 0 -38 2 -40 30
-40 28 0 30 -2 30 -40 0 -22 5 -40 10 -40 6 0 10 -33 10 -80 0 -50 4 -80 11
-80 6 0 9 -18 8 -45 -2 -25 2 -50 9 -57 7 -7 12 -22 12 -35 0 -16 6 -23 20
-23 17 0 20 -7 20 -39 0 -22 -4 -41 -9 -43 -11 -4 5 -48 17 -48 5 0 15 11 22
25 l13 24 35 -37 36 -37 -32 -3 c-28 -3 -32 -7 -32 -33 0 -27 3 -29 35 -29 19
0 35 -4 35 -10 0 -5 -4 -10 -10 -10 -5 0 -10 -18 -10 -40 0 -22 5 -40 10 -40
6 0 10 -9 10 -20 0 -16 7 -20 30 -20 23 0 30 4 30 20 0 16 -7 20 -30 20 -28 0
-30 2 -30 40 0 38 2 40 30 40 l30 0 0 520 0 520 -230 0 -230 0 0 -40z"/>
<path d="M3065 12060 c-3 -5 3 -10 14 -10 12 0 21 5 21 10 0 6 -6 10 -14 10
-8 0 -18 -4 -21 -10z"/>
<path d="M3600 12057 c-3 -3 -36 -7 -75 -11 -38 -3 -113 -15 -165 -26 -52 -11
-106 -18 -118 -15 -13 3 -30 1 -38 -6 -7 -6 -21 -8 -30 -5 -16 6 -112 -23
-168 -51 -28 -14 -29 -14 -23 6 6 25 -14 29 -33 6 -7 -8 -40 -32 -74 -52 -59
-35 -79 -50 -163 -120 -21 -18 -53 -43 -71 -57 -88 -64 -179 -167 -188 -211
-4 -21 -36 -112 -50 -143 -9 -18 -13 -40 -10 -48 3 -8 1 -14 -4 -14 -19 0 -11
-126 9 -162 29 -51 34 -85 13 -85 -9 0 -20 5 -24 11 -8 12 -40 -23 -32 -35 2
-4 -9 -12 -25 -17 -16 -6 -35 -21 -43 -35 -7 -13 -21 -39 -31 -57 -18 -31 -18
-32 1 -49 16 -13 19 -25 15 -62 -4 -35 -1 -53 13 -75 11 -15 24 -42 29 -58 7
-23 20 -34 45 -42 19 -6 36 -17 38 -24 3 -8 -3 -10 -19 -5 l-24 7 23 -25 c19
-20 23 -35 22 -78 -1 -30 1 -72 5 -94 9 -52 12 -248 5 -300 -4 -29 -1 -43 9
-51 12 -9 16 -39 19 -117 4 -95 3 -106 -14 -111 -69 -22 -111 -232 -83 -406
14 -88 75 -303 99 -351 11 -21 20 -50 20 -64 0 -14 5 -34 10 -45 6 -11 15 -29
20 -40 6 -11 12 -59 14 -108 4 -65 14 -113 39 -187 19 -55 40 -125 47 -155 7
-30 19 -64 26 -75 8 -11 14 -26 14 -33 0 -7 15 -34 33 -59 52 -73 67 -97 73
-115 4 -10 10 -18 14 -18 10 0 31 -74 41 -148 10 -71 52 -207 82 -267 11 -22
39 -70 64 -107 49 -77 112 -198 176 -343 65 -145 167 -352 167 -337 0 6 7 12
15 12 8 0 22 11 31 26 11 16 23 23 33 19 8 -3 13 -3 9 0 -3 4 -2 20 4 37 9 25
7 34 -11 58 -16 22 -21 44 -21 89 0 33 5 63 10 66 6 3 10 -1 10 -9 0 -18 75
-26 103 -11 14 8 20 6 28 -7 13 -24 29 -23 29 2 0 13 7 20 19 20 11 0 26 6 33
14 25 24 56 29 67 9 15 -28 26 -9 30 55 1 6 8 12 17 12 8 0 13 -4 10 -9 -7
-11 45 -22 73 -14 11 3 21 9 21 14 0 5 15 16 33 25 43 22 44 24 27 35 -13 8
-13 11 1 22 9 6 14 18 12 25 -3 7 5 12 19 13 18 1 15 3 -12 11 -34 10 -34 11
-11 19 13 5 38 16 55 24 17 8 49 20 71 28 22 7 39 18 38 25 -2 7 3 12 11 12 7
0 19 7 26 15 7 8 16 12 21 10 4 -3 13 4 19 15 6 11 18 20 26 20 11 0 13 6 9
20 -5 16 1 23 32 37 21 10 44 23 50 30 7 6 31 19 53 30 22 10 42 25 45 34 3 9
21 20 40 23 22 4 35 13 35 22 0 8 4 13 8 10 10 -6 82 57 82 71 0 6 7 16 15 23
8 7 15 19 15 27 0 16 22 70 47 118 60 112 71 135 78 163 3 18 11 34 16 37 5 4
9 14 9 24 0 10 7 24 15 31 8 7 22 37 31 67 9 30 22 66 30 81 8 15 14 41 14 59
0 17 5 33 10 35 6 2 12 19 14 38 5 61 38 185 52 196 8 6 14 30 14 56 0 24 5
49 12 56 11 11 18 84 17 188 0 27 5 72 11 99 6 27 11 121 11 208 -1 172 1 178
61 258 24 31 25 38 12 43 -8 3 -12 11 -9 17 4 5 7 27 7 47 0 20 5 46 12 57 7
11 16 38 20 60 4 22 16 49 26 60 17 19 20 34 20 84 0 13 4 29 9 35 4 6 11 45
14 86 7 80 21 135 43 161 8 8 14 24 14 35 0 11 7 29 15 40 9 11 15 42 15 79 0
38 3 55 9 46 5 -7 14 -10 20 -7 10 7 8 248 -3 431 -4 66 -25 123 -48 131 -10
3 -25 19 -34 36 -19 37 -81 98 -99 98 -17 0 -75 48 -75 63 0 6 -8 19 -17 29
-13 15 -14 21 -5 27 19 12 -14 72 -35 64 -12 -5 -14 -3 -8 6 5 10 2 11 -14 6
-15 -4 -21 -2 -21 8 0 7 -12 20 -27 28 -30 15 -78 61 -86 81 -2 7 -34 28 -70
46 -58 28 -66 36 -69 64 -2 19 -13 38 -28 50 -41 30 -170 70 -246 75 l-70 5
19 39 c15 30 16 42 7 59 -15 28 -99 65 -193 86 -39 9 -105 27 -145 41 -54 17
-105 26 -190 30 -65 3 -119 3 -122 0z m-400 -146 c0 -5 -7 -12 -16 -15 -14 -5
-15 -4 -4 9 14 17 20 19 20 6z m-150 -121 c-13 -24 -17 -24 -36 -6 -14 15 -13
16 39 25 4 0 3 -8 -3 -19z m-85 -20 c3 -5 1 -10 -4 -10 -6 0 -11 -10 -11 -22
l0 -22 16 22 c13 19 17 20 30 8 15 -16 18 -27 7 -25 -23 4 -33 -3 -33 -24 0
-25 -13 -44 -44 -67 -18 -14 -19 -13 -13 3 3 9 2 17 -3 17 -6 0 -10 -7 -10
-15 0 -8 -4 -15 -9 -15 -5 0 -11 -9 -14 -20 -3 -11 -17 -24 -31 -30 -14 -5
-27 -15 -28 -22 -1 -7 -4 12 -8 42 l-7 55 -1 -66 c-1 -37 -8 -73 -16 -84 -12
-17 -14 -15 -20 19 -13 70 5 112 87 199 l36 37 -6 -35 c-5 -30 -3 -35 15 -35
20 0 41 32 24 38 -12 4 15 62 28 62 5 0 12 -4 15 -10z m-54 -242 c-3 -47 -4
-50 -17 -33 -13 18 -14 18 -15 -6 0 -13 -3 -18 -6 -11 -6 16 -23 15 -23 -2 0
-8 7 -16 15 -20 8 -3 15 -11 15 -18 0 -9 -3 -9 -12 0 -16 16 -28 15 -28 -2 0
-21 27 -40 33 -24 3 7 6 9 6 3 0 -5 -4 -17 -9 -25 -7 -12 -13 -11 -34 10 -15
13 -26 29 -26 37 0 7 -4 13 -10 13 -5 0 -10 5 -10 11 0 5 5 7 10 4 6 -3 10 0
11 7 0 10 2 10 6 1 2 -7 9 -13 14 -13 6 0 8 4 4 9 -3 6 1 16 8 23 8 7 12 20
10 29 -3 9 0 20 6 23 6 4 11 0 11 -8 0 -9 5 -16 10 -16 6 0 10 11 10 24 0 13
6 27 13 29 6 3 12 6 12 6 0 1 -2 -22 -4 -51z m849 -300 c19 -12 44 -29 55 -39
11 -10 23 -18 28 -18 19 -1 137 -97 137 -112 0 -10 89 -99 99 -99 11 0 71 -58
71 -69 0 -5 9 -7 20 -4 16 4 19 2 14 -11 -5 -12 0 -19 15 -23 12 -3 21 -13 21
-25 0 -10 7 -33 16 -49 9 -19 13 -41 9 -60 -7 -30 10 -99 24 -99 15 0 49 -35
52 -54 2 -11 29 -34 59 -52 43 -25 59 -30 74 -22 13 7 21 7 26 -2 5 -8 13 -9
21 -4 8 5 19 9 24 9 6 0 11 10 11 22 1 13 7 29 13 37 7 8 10 20 7 25 -4 5 -2
12 3 15 14 9 21 -7 11 -23 -5 -9 3 -29 21 -56 19 -28 29 -56 29 -79 0 -20 5
-36 10 -36 6 0 10 -22 10 -49 0 -28 5 -53 10 -56 6 -3 10 -17 10 -29 0 -13 9
-35 20 -49 11 -14 20 -33 20 -42 0 -11 5 -15 16 -11 8 3 13 2 10 -2 -3 -5 4
-27 15 -50 17 -34 23 -73 30 -205 5 -89 20 -220 32 -292 13 -75 22 -172 22
-230 0 -96 -2 -103 -38 -174 -20 -40 -37 -82 -37 -92 0 -11 -5 -19 -11 -19
-12 0 -74 -49 -74 -59 0 -3 -10 -16 -22 -28 -13 -13 -23 -34 -23 -47 0 -25
-31 -41 -48 -24 -6 6 -14 -3 -22 -24 -8 -18 -17 -35 -22 -39 -4 -3 -17 -23
-28 -45 -10 -21 -19 -33 -20 -26 0 7 -5 10 -10 7 -6 -4 -8 -15 -5 -25 3 -10 0
-22 -7 -27 -18 -11 -48 -91 -41 -109 3 -8 0 -14 -6 -14 -8 0 -9 -5 -3 -17 7
-12 5 -24 -5 -40 -12 -18 -12 -23 -2 -23 9 0 8 -4 -3 -12 -9 -7 -18 -26 -20
-43 -2 -21 -11 -34 -29 -42 -15 -7 -30 -24 -33 -38 -17 -67 -34 0 -28 110 2
22 3 57 3 77 0 20 7 42 15 49 11 9 12 15 2 26 -9 11 -9 16 2 23 10 6 8 13 -8
30 -12 13 -32 45 -44 71 -21 44 -28 50 -73 63 -29 9 -53 12 -59 6 -5 -5 -17
-3 -30 5 -11 7 -41 16 -66 20 -52 8 -74 25 -97 72 -14 30 -28 38 -60 34 -7 -1
-13 3 -13 9 0 5 -8 10 -17 10 -23 0 -8 13 20 17 53 7 69 15 87 46 33 54 28 63
-42 65 -35 1 -76 5 -91 8 -19 4 -34 0 -47 -11 -16 -14 -36 -16 -127 -13 l-109
3 -43 37 -43 37 -21 -20 c-41 -38 -117 -37 -117 1 0 23 -25 27 -33 6 -6 -14
-2 -105 6 -155 3 -20 16 -34 45 -47 2 -1 -4 -19 -13 -39 -8 -21 -18 -35 -22
-32 -3 4 -12 2 -19 -4 -8 -6 -45 -12 -83 -14 -38 -1 -74 -6 -80 -10 -7 -3 -18
-2 -25 4 -13 11 -51 -5 -140 -59 -38 -23 -38 -23 -17 -40 24 -17 19 -32 -7
-23 -11 5 -14 2 -9 -10 3 -9 2 -19 -3 -22 -6 -4 -10 7 -10 23 0 16 -7 35 -15
42 -11 9 -13 23 -9 52 6 32 3 43 -16 63 -13 14 -20 25 -15 25 5 0 -2 11 -15
25 -13 14 -29 25 -37 25 -7 0 -13 6 -13 13 0 12 -69 66 -102 79 -10 4 -15 13
-12 21 3 8 -2 20 -11 27 -8 7 -15 19 -15 26 0 8 -7 14 -15 14 -8 0 -15 7 -15
15 0 17 -36 39 -50 30 -6 -3 -10 3 -10 13 0 11 -9 39 -19 63 -15 33 -17 45 -8
51 9 6 9 10 -1 16 -26 17 -26 112 1 253 14 74 28 151 32 172 4 27 11 37 25 37
14 0 20 10 25 40 4 22 11 40 16 40 5 0 8 3 8 8 -1 4 -1 16 0 27 1 18 3 18 11
4 7 -12 5 -27 -7 -50 -15 -30 -19 -62 -14 -124 1 -19 70 -65 99 -65 6 0 12 -4
12 -8 0 -19 37 -48 75 -59 59 -17 158 -23 228 -12 94 14 120 19 132 29 6 5 31
12 55 16 59 9 94 32 79 50 -6 7 -9 17 -6 21 3 4 -8 8 -24 8 -16 0 -29 -2 -29
-5 0 -8 -94 1 -104 10 -5 5 -1 9 10 10 10 0 42 3 71 6 37 4 61 1 84 -10 18 -9
38 -16 46 -16 9 0 11 -5 6 -12 -4 -7 -8 -19 -10 -27 -1 -8 -5 -17 -10 -20 -15
-11 -33 -60 -23 -66 5 -3 11 -1 15 5 8 13 26 13 45 0 13 -9 12 -12 -4 -25 -17
-13 -18 -15 -3 -15 9 0 17 -4 17 -10 0 -5 6 -10 14 -10 17 0 86 70 86 86 0 7
5 14 11 16 6 2 20 42 30 90 16 76 17 91 5 138 -7 28 -11 60 -9 70 5 19 -34
100 -49 100 -4 0 -8 9 -8 20 0 11 -5 30 -12 43 -6 12 -14 29 -19 37 -4 8 -12
14 -18 13 -6 -2 -11 4 -11 13 0 10 -5 14 -15 10 -8 -3 -22 -9 -30 -12 -11 -4
-15 0 -15 16 0 17 -4 21 -17 16 -11 -5 -23 1 -34 16 -16 21 -27 23 -106 24
-94 2 -223 23 -223 36 0 4 -9 8 -20 8 -17 0 -20 7 -20 40 0 22 -4 40 -10 40
-21 0 -9 18 20 30 27 11 35 21 31 43 0 4 5 7 12 7 41 0 102 116 98 187 -1 26
2 49 8 52 7 5 6 20 -3 45 -13 39 -10 89 4 66 10 -16 21 28 14 56 -3 12 1 27 9
35 7 8 12 19 10 26 -2 6 5 21 17 33 12 12 26 35 32 52 13 37 145 168 170 168
10 0 17 5 16 12 -2 8 9 11 34 9 20 -1 65 5 100 14 36 9 81 15 101 13 20 -1 40
1 44 6 13 12 95 -4 133 -26z m1400 -218 c8 -16 7 -18 -4 -14 -8 3 -16 14 -19
25 -6 23 9 16 23 -11z m-2750 -165 c0 -16 -30 -35 -55 -35 -21 0 -31 30 -14
41 23 14 69 11 69 -6z m4 -104 c3 -4 0 -16 -8 -26 -15 -21 -52 -13 -58 13 -4
13 3 18 28 19 18 2 35 -1 38 -6z m-34 -73 c0 -5 -9 -4 -20 2 -11 6 -20 12 -20
14 0 2 9 2 20 -1 11 -3 20 -9 20 -15z m808 -706 l52 -19 -27 -12 c-56 -26
-178 11 -132 40 21 13 50 11 107 -9z m-595 -54 c-8 -46 -13 -48 -13 -5 0 21 4
37 10 37 5 0 7 -14 3 -32z m755 -38 c30 -28 28 -31 -8 -14 -16 9 -30 20 -30
25 0 15 15 10 38 -11z m-711 -22 c-3 -8 -6 -5 -6 6 -1 11 2 17 5 13 3 -3 4
-12 1 -19z m631 -13 l37 -25 -48 0 c-43 0 -47 2 -47 25 0 14 5 25 11 25 5 0
27 -11 47 -25z m502 -1055 c0 -5 -4 -10 -10 -10 -5 0 -10 5 -10 10 0 6 5 10
10 10 6 0 10 -4 10 -10z m-40 -4 c0 -3 -4 -8 -10 -11 -5 -3 -10 -1 -10 4 0 6
5 11 10 11 6 0 10 -2 10 -4z m141 -183 c10 -10 10 -16 1 -25 -7 -7 -12 -20
-12 -29 0 -26 -51 -41 -152 -43 -141 -3 -250 23 -287 68 -8 9 -20 16 -27 16
-8 0 -14 5 -14 10 0 13 13 13 27 -1 9 -9 19 -9 41 2 39 19 405 20 423 2z m269
-16 c14 -13 33 -26 43 -30 9 -3 17 -13 17 -21 0 -8 11 -23 25 -34 19 -15 25
-29 25 -58 0 -27 -3 -35 -9 -25 -6 9 -16 11 -27 6 -18 -6 -17 -8 4 -16 12 -4
22 -13 22 -19 0 -7 -6 -8 -19 0 -16 8 -25 4 -50 -20 -16 -17 -40 -30 -52 -30
-12 0 -19 -3 -16 -7 11 -10 -13 -32 -29 -26 -20 7 -18 -7 4 -23 16 -13 16 -13
-2 -14 -11 0 -16 -5 -13 -14 3 -8 -1 -17 -10 -20 -9 -4 -13 -12 -8 -24 5 -14
4 -15 -6 -4 -22 21 -40 15 -33 -13 5 -22 3 -25 -20 -25 -15 0 -44 12 -66 26
-25 17 -46 24 -57 20 -15 -6 -12 -10 15 -23 18 -9 38 -25 43 -35 16 -30 3 -33
-16 -4 -17 26 -54 39 -38 14 4 -7 -5 -5 -20 5 -32 21 -37 21 -37 2 0 -8 -4
-15 -10 -15 -5 0 -10 9 -10 19 0 23 -16 37 -23 19 -3 -10 -7 -10 -20 1 -19 15
-23 61 -6 61 5 0 7 -6 4 -12 -4 -7 0 -5 8 5 8 9 26 17 41 17 15 0 32 5 39 10
7 6 25 20 40 31 19 15 27 28 24 40 -3 12 0 19 9 19 8 0 14 4 14 8 0 4 14 16
30 25 18 11 30 26 30 38 0 24 19 45 45 50 18 4 18 5 0 22 -14 15 -20 16 -26 5
-10 -15 -12 -6 -3 16 3 9 12 16 19 16 7 0 15 7 19 15 4 12 54 41 76 44 3 1 16
-9 30 -22z m-1024 -94 c-10 -10 -19 5 -10 18 6 11 8 11 12 0 2 -7 1 -15 -2
-18z m12 -53 c-2 -5 -9 -6 -16 -1 -7 4 -10 15 -6 25 6 17 8 17 16 2 5 -9 8
-21 6 -26z m-38 1 c0 -6 -4 -13 -10 -16 -5 -3 -10 1 -10 9 0 9 5 16 10 16 6 0
10 -4 10 -9z m120 -18 c0 -15 16 -17 25 -3 9 15 25 2 25 -21 0 -11 5 -17 10
-14 6 3 13 -2 17 -11 17 -45 89 -99 117 -88 9 4 38 -2 64 -12 26 -10 50 -17
54 -16 13 3 17 -28 5 -40 -7 -7 -16 -21 -20 -31 -6 -17 -7 -17 -25 0 -11 11
-14 21 -8 25 24 16 -7 20 -34 4 -24 -14 -37 -15 -67 -7 -50 14 -51 14 -58 -8
-7 -24 -56 -16 -62 10 -3 11 -10 19 -16 19 -5 0 -21 12 -34 26 -19 21 -22 29
-11 35 11 7 11 9 -1 9 -7 0 -11 6 -8 15 4 8 2 17 -3 20 -13 8 -13 62 0 70 7 5
8 11 1 19 -7 8 -4 12 10 12 10 0 19 -6 19 -13z m494 -199 c4 -14 2 -24 -7 -27
-9 -3 -14 6 -16 32 -2 38 11 35 23 -5z m-74 6 c0 -5 -5 -10 -11 -10 -5 0 -7 5
-4 10 3 6 8 10 11 10 2 0 4 -4 4 -10z m-20 -30 c0 -5 -5 -10 -11 -10 -5 0 -7
5 -4 10 3 6 8 10 11 10 2 0 4 -4 4 -10z m218 -697 c-10 -2 -26 -2 -35 0 -10 3
-2 5 17 5 19 0 27 -2 18 -5z m-23 -73 c4 -6 -5 -10 -19 -10 -14 0 -26 5 -26
10 0 6 9 10 19 10 11 0 23 -4 26 -10z m-52 -47 c-7 -2 -19 -2 -25 0 -7 3 -2 5
12 5 14 0 19 -2 13 -5z"/>
<path d="M2941 11696 c-7 -8 -8 -17 -3 -20 6 -3 13 1 16 10 9 23 2 28 -13 10z"/>
<path d="M2856 11664 c-4 -9 -4 -19 -1 -22 2 -3 7 3 11 12 4 9 4 19 1 22 -2 3
-7 -3 -11 -12z"/>
<path d="M2832 11620 c0 -14 2 -19 5 -12 2 6 2 18 0 25 -3 6 -5 1 -5 -13z"/>
<path d="M3368 11203 c7 -3 16 -2 19 1 4 3 -2 6 -13 5 -11 0 -14 -3 -6 -6z"/>
<path d="M4378 10231 c-5 -15 -126 -27 -193 -20 -114 13 -182 10 -189 -6 -3
-8 -12 -15 -21 -15 -8 0 -15 -8 -15 -17 0 -14 -3 -13 -20 5 -21 22 -54 29 -64
13 -3 -4 -19 -11 -36 -14 -16 -4 -30 -13 -30 -21 0 -7 -7 -19 -15 -26 -14 -12
-14 -15 1 -31 12 -13 13 -19 4 -19 -8 0 -10 -8 -7 -22 3 -12 1 -31 -5 -42 -16
-28 -10 -185 7 -211 7 -11 22 -31 34 -44 11 -13 21 -30 21 -38 0 -7 5 -13 12
-13 6 0 20 -7 30 -17 28 -25 30 -11 3 29 l-24 36 62 -5 c34 -3 64 -7 66 -10 3
-2 -4 -11 -15 -19 -20 -16 -19 -17 7 -45 44 -47 69 -53 259 -65 112 -7 173 5
229 46 15 10 41 20 59 22 26 3 40 14 67 53 34 47 46 95 24 95 -5 0 -7 5 -4 10
3 6 0 10 -9 10 -19 0 -14 81 5 90 25 9 23 86 -2 122 -33 49 -90 102 -153 142
-57 36 -82 44 -88 27z m199 -267 c-3 -3 -12 -4 -19 -1 -8 3 -5 6 6 6 11 1 17
-2 13 -5z m-345 -34 c42 -12 51 -21 42 -44 -6 -17 -29 -16 -109 5 -34 9 -37
12 -21 21 15 8 16 12 5 19 -20 12 37 11 83 -1z m-312 -109 c0 -12 -29 -35 -36
-28 -11 10 5 37 21 37 8 0 15 -4 15 -9z m154 -27 c8 -22 6 -23 -24 -12 -20 7
-22 11 -10 18 21 14 27 12 34 -6z m246 -24 c0 -8 -24 -20 -41 -20 -5 0 -4 9 3
19 11 18 38 18 38 1z m-367 3 c-7 -2 -21 -2 -30 0 -10 3 -4 5 12 5 17 0 24 -2
18 -5z m122 -43 c3 -5 2 -10 -4 -10 -5 0 -13 5 -16 10 -3 6 -2 10 4 10 5 0 13
-4 16 -10z m109 2 c2 -4 -4 -8 -15 -8 -10 0 -19 4 -19 8 0 4 6 8 14 8 8 0 17
-4 20 -8z"/>
<path d="M4520 10210 c0 -5 5 -10 11 -10 5 0 7 5 4 10 -3 6 -8 10 -11 10 -2 0
-4 -4 -4 -10z"/>
<path d="M4585 10190 c4 -6 11 -8 16 -5 14 9 11 15 -7 15 -8 0 -12 -5 -9 -10z"/>
<path d="M4567 10149 c7 -7 15 -10 18 -7 3 3 -2 9 -12 12 -14 6 -15 5 -6 -5z"/>
<path d="M3327 9369 c-16 -56 -26 -104 -23 -107 3 -3 20 11 37 31 17 21 36 37
41 37 13 0 57 -53 58 -70 0 -9 6 -6 17 9 15 22 15 26 0 55 -8 17 -21 49 -28
71 -13 41 -42 75 -63 75 -6 0 -24 -45 -39 -101z"/>
<path d="M2680 9130 c0 -5 5 -10 11 -10 5 0 7 5 4 10 -3 6 -8 10 -11 10 -2 0
-4 -4 -4 -10z"/>
<path d="M4989 9673 c-37 -40 -41 -59 -20 -95 11 -18 22 -58 26 -88 6 -42 10
-50 16 -35 4 11 8 37 8 57 1 54 15 54 30 0 20 -72 20 -72 30 -72 22 0 28 37
20 106 -9 74 -33 144 -48 144 -5 0 -16 2 -23 5 -8 3 -25 -7 -39 -22z"/>
<path d="M4496 7891 c-3 -4 -10 -21 -16 -37 l-10 -29 20 25 c11 14 20 31 20
38 0 14 -6 16 -14 3z"/>
<path d="M4800 7834 c14 -16 50 -53 80 -84 30 -30 81 -89 112 -130 63 -84 207
-328 273 -465 24 -49 62 -118 85 -153 23 -35 39 -70 36 -78 -7 -18 -36 -18
-61 0 -11 7 -49 16 -85 19 -178 16 -305 30 -405 44 -60 9 -153 18 -207 20 -88
4 -97 3 -102 -15 -12 -35 -107 -119 -189 -166 -125 -71 -125 -69 -129 -153 -2
-40 0 -73 5 -73 5 0 4 -6 -2 -14 -8 -10 -9 -16 -1 -21 6 -3 8 -11 4 -16 -3 -5
-1 -15 4 -22 12 -14 9 -94 -7 -192 -6 -38 -30 -180 -52 -315 -22 -135 -42
-256 -44 -269 -3 -14 -12 -75 -21 -135 -17 -118 -21 -141 -25 -141 -1 0 -3 -9
-4 -21 -1 -11 -7 -42 -13 -70 -7 -27 -23 -141 -37 -254 -15 -113 -37 -263 -50
-335 -13 -71 -27 -150 -30 -175 -4 -25 -27 -124 -52 -220 -25 -96 -49 -191
-54 -210 -4 -19 -24 -96 -43 -170 -20 -74 -36 -145 -36 -156 0 -12 -13 -73
-29 -135 -16 -63 -45 -175 -65 -249 -19 -74 -38 -157 -41 -183 -8 -55 -37 -98
-55 -81 -11 11 -13 24 -55 329 -14 105 -41 298 -60 430 -56 395 -105 773 -105
813 0 20 -5 53 -10 72 -12 41 -175 1326 -192 1515 -14 157 -7 190 40 190 16 0
28 3 25 7 -2 5 7 8 21 8 14 0 26 5 26 10 0 6 -17 10 -37 9 -45 -2 -92 15 -153
56 -60 39 -84 67 -117 132 -28 54 -28 54 -45 33 -10 -12 -18 -19 -18 -14 0 4
7 15 16 25 10 11 13 25 9 38 -6 19 -14 21 -78 21 -40 -1 -108 -7 -152 -15
-244 -44 -603 -71 -627 -47 -9 9 -4 21 20 49 76 89 156 202 188 265 32 64 168
270 242 368 19 25 87 105 151 178 64 73 117 139 119 146 2 11 -7 11 -54 0 -67
-15 -90 -24 -204 -77 -47 -22 -138 -61 -203 -88 -146 -61 -223 -99 -311 -156
-87 -56 -96 -59 -198 -73 -45 -6 -130 -27 -187 -46 -57 -19 -183 -54 -280 -78
-203 -51 -280 -78 -320 -111 -17 -15 -35 -22 -48 -19 -67 18 -222 -155 -223
-248 0 -13 -14 -43 -30 -67 -24 -35 -30 -55 -30 -97 0 -29 -6 -58 -13 -66
-110 -113 -279 -449 -392 -780 -73 -211 -138 -477 -164 -668 -25 -179 -43
-288 -61 -365 -53 -235 -50 -114 -50 -1962 l0 -1711 33 -11 c17 -6 84 -24 147
-41 176 -47 396 -121 725 -245 363 -137 395 -151 395 -167 0 -7 -7 -40 -14
-73 -8 -33 -24 -145 -36 -250 -18 -161 -27 -208 -61 -305 -21 -64 -39 -119
-39 -123 0 -4 1163 -7 2585 -7 1422 0 2585 2 2585 4 0 2 -18 54 -40 115 -42
117 -78 316 -100 546 -6 66 -20 165 -30 220 -10 55 -20 124 -22 154 l-3 55 75
13 c48 9 109 11 170 8 104 -7 146 2 353 79 54 20 144 47 200 61 232 55 490
116 607 142 l125 29 3 1649 c2 1170 0 1667 -8 1708 -6 32 -19 72 -29 90 -10
18 -21 56 -24 85 -4 29 -18 77 -32 105 -13 29 -33 90 -44 137 -33 146 -91 444
-91 468 0 12 -9 39 -20 59 -11 21 -20 43 -20 51 0 43 -128 377 -242 631 -11
24 -25 62 -32 85 -7 23 -24 57 -38 77 -13 20 -30 60 -36 90 -9 40 -27 72 -67
123 -40 50 -55 77 -55 100 -1 56 -18 108 -45 136 -24 25 -26 34 -20 68 4 28 2
49 -9 70 -21 41 -92 95 -116 89 -12 -3 -28 5 -45 23 -20 21 -84 50 -244 109
-314 116 -383 134 -586 151 -270 23 -367 53 -750 228 -130 59 -211 88 -280 97
l-50 8 25 -29z m1460 -4009 c66 -34 79 -145 30 -245 -5 -11 3 -19 33 -30 79
-30 103 -112 57 -196 -12 -20 -23 -50 -25 -65 -2 -16 -11 -39 -19 -51 -9 -12
-16 -31 -16 -42 0 -34 -33 -96 -51 -96 -26 0 -36 138 -13 182 16 31 16 32 -6
50 -22 18 -23 22 -13 71 6 29 15 66 21 83 6 19 6 37 1 45 -13 20 -46 -21 -59
-74 -23 -93 -87 -273 -116 -326 -34 -61 -54 -72 -161 -84 l-53 -6 -2 42 c-1
23 -1 55 0 71 4 46 42 164 58 177 8 6 14 16 14 22 0 22 53 87 71 87 14 0 19 7
19 25 0 17 4 23 14 19 10 -4 16 6 21 35 4 23 11 39 16 35 20 -12 46 8 57 43 9
28 9 39 0 44 -8 5 -8 15 -1 36 6 15 19 53 28 83 26 85 39 94 95 65z m-4374
-347 c44 -19 114 -71 114 -85 0 -16 31 -53 45 -53 19 0 93 -45 129 -78 33 -30
41 -43 37 -65 -1 -4 15 -15 34 -23 30 -12 35 -18 29 -36 -5 -17 -3 -20 13 -16
21 6 94 -31 101 -50 2 -6 -6 -19 -17 -29 -29 -24 -26 -31 14 -39 29 -5 33 -9
24 -20 -9 -11 -7 -15 7 -20 11 -3 27 -10 36 -15 10 -5 22 -9 28 -9 6 0 21 -9
33 -21 17 -16 30 -19 56 -14 33 6 34 6 28 -23 -7 -36 8 -45 54 -32 33 10 69
-1 69 -21 0 -6 11 -8 28 -4 38 8 83 -10 76 -30 -8 -21 8 -19 32 4 11 10 39 20
62 23 42 4 56 -5 26 -16 -23 -9 -8 -24 18 -19 22 4 23 2 26 -79 1 -46 -2 -121
-8 -168 -6 -47 -12 -132 -14 -190 -2 -87 -8 -120 -34 -190 -42 -116 -53 -136
-84 -154 -15 -9 -29 -25 -33 -35 -3 -11 -23 -23 -50 -31 -25 -7 -45 -16 -45
-21 0 -5 -81 -6 -179 -3 -115 3 -187 2 -199 -5 -12 -6 -31 -7 -50 -2 -19 6
-34 5 -40 -1 -7 -7 -25 -5 -57 5 -26 9 -59 14 -76 10 -16 -3 -41 0 -56 6 -16
6 -41 13 -58 15 -66 10 -233 84 -243 108 -2 4 -12 8 -22 8 -10 0 -26 10 -35
23 -8 12 -19 22 -23 22 -10 0 -75 47 -89 65 -17 21 -16 48 2 66 8 9 15 28 15
44 0 19 8 33 26 45 14 9 23 19 20 22 -3 3 -12 -2 -21 -11 -9 -9 -28 -15 -43
-15 -17 1 -21 3 -9 6 9 2 17 9 17 14 0 15 -10 11 -51 -22 -21 -17 -40 -28 -40
-25 -1 3 -2 11 -3 16 -3 25 -21 12 -24 -17 -4 -41 -28 -43 -72 -7 -46 39 -59
81 -55 171 2 43 5 141 5 217 1 132 2 141 26 171 32 42 45 122 38 236 -6 84 -4
91 17 110 12 10 32 19 43 19 12 0 37 8 56 19 27 14 38 29 47 62 18 61 89 163
132 188 29 17 46 21 87 16 28 -2 64 -11 80 -17z m4282 -359 c10 -14 10 -18 -1
-22 -10 -4 -14 2 -14 19 0 14 0 24 1 22 1 -2 7 -10 14 -19z m-2235 -1696 c-7
-2 -19 -2 -25 0 -7 3 -2 5 12 5 14 0 19 -2 13 -5z m260 -250 c-7 -2 -19 -2
-25 0 -7 3 -2 5 12 5 14 0 19 -2 13 -5z m1087 -8 c165 -20 298 -43 316 -53 13
-7 2 -20 -57 -70 -41 -34 -99 -86 -129 -116 -30 -31 -84 -71 -121 -91 -112
-59 -266 -84 -288 -47 -10 16 -12 16 -25 0 -15 -20 -82 -26 -70 -7 5 9 -12 10
-67 3 -110 -12 -281 -11 -303 3 -11 7 -27 8 -40 4 -11 -5 -45 -11 -73 -15 -47
-6 -53 -5 -53 11 0 23 27 113 39 127 5 6 28 49 52 96 24 47 44 86 45 88 1 2
12 -1 23 -8 14 -7 21 -7 21 0 0 5 9 10 19 10 11 0 26 6 33 13 7 8 29 14 49 15
47 2 401 42 414 47 21 8 105 4 215 -10z"/>
<path d="M1671 2254 c0 -11 3 -14 6 -6 3 7 2 16 -1 19 -3 4 -6 -2 -5 -13z"/>
<path d="M4417 7727 c-32 -66 -56 -127 -51 -127 3 0 -7 -11 -21 -24 -15 -14
-24 -30 -20 -36 4 -6 1 -18 -6 -27 -8 -8 -14 -30 -16 -47 -1 -17 -23 -68 -50
-113 -79 -135 -86 -147 -89 -161 -1 -8 -10 -22 -20 -33 -19 -21 -24 -44 -29
-150 -2 -42 -9 -88 -15 -103 -13 -36 -13 -41 5 -26 8 7 15 17 15 22 0 5 8 20
17 35 24 36 54 110 124 303 33 91 83 226 111 300 61 163 79 220 68 220 -4 0
-15 -15 -23 -33z"/>
<path d="M3805 7359 c4 -5 16 -9 27 -9 26 0 19 9 -11 15 -12 2 -19 0 -16 -6z"/>
<path d="M3680 7310 c0 -5 4 -10 9 -10 6 0 13 5 16 10 3 6 -1 10 -9 10 -9 0
-16 -4 -16 -10z"/>
<path d="M3580 7286 c0 -8 4 -17 9 -20 10 -7 23 19 14 28 -11 11 -23 6 -23 -8z"/>
<path d="M3680 7240 c0 -5 5 -10 10 -10 6 0 10 5 10 10 0 6 -4 10 -10 10 -5 0
-10 -4 -10 -10z"/>
<path d="M3368 7223 c7 -3 16 -2 19 1 4 3 -2 6 -13 5 -11 0 -14 -3 -6 -6z"/>
<path d="M3272 6593 c-10 -4 -10 -8 -1 -19 9 -11 8 -14 -2 -15 -8 -1 4 -5 26
-9 22 -4 41 -7 43 -5 2 2 -4 15 -13 29 -17 26 -28 29 -53 19z"/>
<path d="M3332 6531 c-10 -6 -7 -10 11 -13 18 -4 24 -1 20 9 -6 15 -13 16 -31
4z"/>
<path d="M3395 6480 c3 -5 11 -10 16 -10 6 0 7 5 4 10 -3 6 -11 10 -16 10 -6
0 -7 -4 -4 -10z"/>
<path d="M3837 6483 c-4 -3 -7 -11 -7 -17 0 -6 5 -5 12 2 6 6 9 14 7 17 -3 3
-9 2 -12 -2z"/>
<path d="M3761 6354 c-16 -37 -9 -39 11 -3 9 16 14 29 9 29 -4 0 -13 -12 -20
-26z"/>
</g>
</svg>
