<?xml version="1.0" standalone="no"?>
<!DOCTYPE svg PUBLIC "-//W3C//DTD SVG 20010904//EN"
 "http://www.w3.org/TR/2001/REC-SVG-20010904/DTD/svg10.dtd">
<svg version="1.0" xmlns="http://www.w3.org/2000/svg"
 width="520.000000pt" height="1156.000000pt" viewBox="0 0 520.000000 1156.000000"
 preserveAspectRatio="xMidYMid meet">

<g transform="translate(0.000000,1156.000000) scale(0.100000,-0.100000)"
fill="#000000" stroke="none">
<path d="M0 5780 l0 -5780 2600 0 2600 0 0 5780 0 5780 -2600 0 -2600 0 0
-5780z m546 4652 c16 -11 36 -51 29 -61 -3 -5 0 -11 5 -13 15 -5 32 -81 20
-88 -5 -3 -5 -21 -1 -42 11 -46 -6 -66 -38 -48 -23 12 -27 26 -10 32 6 2 12
17 13 33 2 17 8 40 14 52 10 17 9 25 -4 37 -8 9 -20 16 -26 16 -6 0 -8 3 -5 6
4 4 -2 19 -13 34 -11 16 -20 33 -20 39 0 13 20 14 36 3z m21 -134 c-3 -8 -6
-5 -6 6 -1 11 2 17 5 13 3 -3 4 -12 1 -19z m183 -219 c0 -11 -4 -17 -10 -14
-5 3 -10 13 -10 21 0 8 5 14 10 14 6 0 10 -9 10 -21z m975 -189 c11 9 15 10
15 1 0 -8 8 -10 19 -6 14 4 25 -2 38 -22 28 -40 74 -192 69 -228 -6 -48 -27
-96 -38 -89 -6 4 -14 1 -18 -7 -14 -22 -38 8 -46 58 -4 25 -13 58 -20 72 -8
14 -14 35 -14 46 -1 23 -22 105 -31 120 -4 6 -9 23 -13 39 -6 26 -5 28 8 17
13 -11 19 -11 31 -1z m2563 -913 c18 -12 15 -35 -8 -49 -11 -7 -20 -18 -20
-24 0 -6 -7 -17 -15 -24 -19 -16 -19 -44 1 -61 8 -7 27 -35 40 -61 24 -48 25
-56 39 -481 8 -238 15 -489 15 -558 0 -167 8 -222 29 -213 38 15 50 15 70 -5
12 -12 27 -21 34 -21 11 0 15 -85 22 -447 8 -481 9 -518 19 -868 8 -275 44
-1058 51 -1100 3 -16 7 -64 10 -105 2 -41 9 -142 14 -225 15 -213 15 -210 -16
-241 -18 -18 -23 -29 -15 -32 17 -5 15 -22 -2 -22 -11 0 -15 -22 -18 -97 -2
-54 0 -103 4 -109 5 -7 2 -17 -7 -24 -8 -7 -15 -22 -14 -34 1 -19 2 -19 10 4
6 18 7 11 4 -25 -7 -65 -5 -295 3 -415 4 -52 4 -124 1 -160 -3 -42 -6 -52 -8
-30 -10 140 -15 255 -13 315 1 39 -2 140 -8 225 -5 85 -12 205 -16 265 -3 61
-10 115 -16 122 -5 6 -9 30 -10 53 0 45 -18 70 -50 70 -20 0 -21 -15 -2 -64 4
-11 -2 -19 -17 -25 -13 -4 -157 -16 -319 -25 -162 -9 -296 -19 -299 -21 -2 -3
29 -6 70 -7 l74 -2 -65 -3 c-41 -3 -59 -7 -51 -13 9 -5 14 -23 13 -44 -1 -20
3 -36 8 -36 18 0 10 -23 -17 -49 l-28 -26 28 -3 c19 -2 27 -9 27 -23 0 -16 -7
-19 -40 -19 -33 0 -40 -3 -40 -20 0 -11 7 -20 15 -20 8 0 15 -4 15 -10 0 -5
-11 -10 -25 -10 -21 0 -25 -5 -25 -29 0 -38 29 -51 49 -22 7 12 21 21 29 21
13 0 13 2 -2 13 -18 13 -18 14 -1 21 18 7 38 -11 29 -25 -2 -4 14 -10 36 -14
22 -4 40 -10 40 -15 0 -4 11 -11 25 -14 37 -9 96 -65 116 -111 10 -22 19 -60
19 -85 0 -26 9 -63 20 -85 14 -27 17 -42 9 -50 -7 -7 -13 -5 -20 8 -11 19 -29
14 -29 -9 0 -26 -62 -109 -108 -144 -40 -31 -53 -35 -118 -38 -67 -4 -75 -2
-116 26 -24 17 -50 38 -58 46 -12 15 -14 14 -24 -6 -19 -37 -44 -35 -51 5 -11
55 -3 102 17 99 21 -3 24 3 32 63 4 34 3 43 -3 30 -8 -17 -10 -15 -10 13 -1
19 4 32 11 32 9 0 9 3 0 12 -17 17 -15 41 2 35 8 -3 21 0 30 6 15 11 15 14 -3
29 -26 22 -40 6 -51 -59 -4 -26 -8 -42 -9 -34 -1 11 -5 11 -19 -2 -10 -10 -29
-17 -43 -17 -23 -1 -22 -2 6 -14 25 -12 27 -15 13 -21 -10 -4 -25 -5 -33 -1
-9 3 -25 -4 -38 -17 l-22 -22 28 -3 c42 -5 32 -22 -13 -22 l-40 0 0 -70 c0
-64 -2 -70 -20 -70 -12 0 -30 -9 -42 -20 -14 -13 -36 -20 -59 -20 -21 0 -42
-7 -49 -15 -12 -14 -15 -14 -30 0 -12 11 -19 12 -28 3 -9 -9 -12 -9 -12 2 0 9
-6 8 -20 -5 -11 -10 -17 -21 -12 -24 13 -8 23 -81 11 -81 -5 0 -9 -7 -9 -15 0
-8 -4 -15 -10 -15 -5 0 -10 19 -10 43 -1 38 -2 40 -14 24 -10 -12 -15 -14 -18
-6 -2 7 -11 10 -21 6 -13 -5 -16 -13 -11 -32 7 -27 0 -32 -20 -13 -7 7 -11 20
-9 29 3 9 0 20 -6 23 -7 5 -11 -8 -11 -38 l0 -46 -40 0 c-33 0 -40 3 -40 19 0
11 7 21 17 23 15 3 15 4 0 16 -14 12 -17 8 -24 -28 -9 -48 -27 -57 -31 -17 -3
23 -8 27 -33 27 -22 0 -29 -5 -29 -20 0 -11 5 -20 10 -20 6 0 10 -9 10 -20 0
-27 -18 -26 -22 2 -4 30 -43 31 -65 1 -25 -33 -33 -29 -33 17 0 22 -4 40 -8
40 -5 0 -6 -20 -2 -45 8 -52 -4 -68 -58 -78 -23 -5 -34 -3 -38 7 -5 12 -9 12
-32 0 -42 -22 -81 -18 -92 8 -6 16 -9 18 -9 7 -1 -27 -72 -42 -86 -19 -5 8
-11 8 -19 1 -7 -6 -35 -12 -61 -14 -27 -2 -50 -8 -53 -15 -2 -7 -19 -12 -38
-12 -19 0 -34 -4 -34 -10 0 -5 -11 -10 -24 -10 -20 0 -25 7 -31 43 -6 35 -9
38 -14 19 -5 -21 -13 -24 -72 -28 -57 -4 -68 -2 -74 13 -6 17 -7 17 -16 1 -15
-27 -73 -24 -86 5 -13 29 -6 47 18 47 16 0 19 7 19 49 0 28 4 52 9 55 19 12
41 -7 41 -36 0 -27 1 -28 16 -13 9 9 23 14 31 11 8 -3 23 -1 34 4 14 8 19 7
20 -2 1 -7 4 1 8 17 8 38 42 42 52 5 4 -14 7 -21 8 -17 1 4 9 3 20 -2 10 -6
22 -7 26 -3 10 10 29 9 37 -3 4 -5 5 -27 1 -48 l-6 -37 33 14 c32 13 61 46 42
46 -18 0 -22 54 -5 67 8 7 13 19 9 28 -5 13 -2 14 14 5 11 -6 25 -8 30 -5 5 3
12 0 16 -6 4 -8 12 -4 21 12 13 23 14 23 7 -11 -5 -30 -4 -33 8 -18 18 23 87
33 94 13 5 -13 8 -13 21 0 8 8 21 15 29 15 8 0 14 5 14 10 0 6 6 10 14 10 18
0 29 31 16 44 -6 6 -18 11 -27 11 -9 0 -18 6 -20 13 -3 6 2 12 11 12 20 0 21
16 1 24 -9 3 -15 0 -15 -8 0 -8 -5 -16 -11 -18 -9 -3 -9 -9 0 -25 15 -30 14
-53 -4 -53 -8 0 -16 -8 -16 -17 -1 -16 -2 -16 -6 0 -3 11 -11 16 -19 13 -8 -3
-13 -2 -10 3 3 4 0 22 -7 40 -10 27 -16 31 -52 32 -22 1 -32 3 -22 6 20 5 22
14 6 30 -8 8 -22 8 -51 -3 -22 -8 -60 -14 -84 -14 -40 0 -44 2 -44 25 0 22 -4
25 -38 25 -35 0 -39 3 -51 38 -23 64 -36 79 -75 80 -35 1 -49 -11 -23 -21 8
-3 7 -7 -5 -12 -30 -12 -64 36 -35 49 7 4 8 8 2 11 -30 16 -40 27 -27 32 26
10 10 23 -28 23 -38 0 -40 2 -40 30 0 27 -3 30 -29 30 -25 0 -32 6 -42 35 -12
32 -17 35 -51 35 -32 0 -38 -3 -38 -21 0 -18 -2 -19 -15 -9 -8 7 -15 19 -15
26 0 8 -10 14 -25 14 -22 0 -25 4 -25 40 0 41 -6 46 -54 41 -10 0 -25 7 -32
16 -7 10 -14 13 -14 6 0 -18 -33 -20 -48 -3 -12 13 -13 13 -9 -1 4 -12 -1 -14
-24 -11 -21 3 -29 10 -30 26 -2 20 -2 20 -6 -1 -3 -18 -11 -23 -34 -23 l-29 0
0 75 c0 41 -1 78 -2 83 -2 4 12 8 30 10 31 3 32 2 33 -35 1 -21 3 -30 6 -20 3
10 14 17 29 17 16 0 23 4 18 11 -5 9 1 10 20 5 18 -4 25 -3 21 4 -3 5 -16 10
-28 10 -16 0 -18 3 -9 9 10 6 6 16 -18 40 l-32 31 102 -1 c55 -1 104 2 108 6
7 8 -462 -1 -776 -14 -118 -4 -165 -10 -171 -19 -11 -18 -24 111 -21 203 4
147 7 158 35 135 9 -7 38 -11 77 -10 35 2 78 3 96 3 22 0 32 5 33 16 1 15 2
15 6 0 3 -13 20 -15 116 -12 62 2 148 8 191 13 44 6 116 11 160 11 66 2 74 3
41 9 -44 8 -38 13 11 10 19 -1 36 6 45 16 8 10 9 15 3 11 -6 -3 -22 5 -34 18
-13 14 -18 25 -12 25 7 0 12 5 12 10 0 6 -12 10 -26 10 -14 0 -23 4 -19 10 3
5 11 7 18 4 8 -3 24 0 38 5 24 10 24 10 -6 11 -21 0 -26 3 -16 9 18 12 7 41
-16 41 -11 0 -6 7 15 17 21 10 31 21 27 30 -13 36 -16 63 -7 63 6 0 8 16 5 40
-5 35 -3 40 15 40 34 0 48 79 15 81 -14 0 -13 3 5 11 28 14 28 42 0 57 -20 9
-16 10 25 6 30 -4 47 -2 47 5 0 6 11 16 25 22 14 6 25 19 25 29 0 10 5 21 10
24 6 3 10 18 10 32 0 22 3 24 28 19 17 -4 2 9 -43 38 -179 113 -353 274 -477
441 -4 6 -18 24 -31 40 -49 64 -108 164 -152 260 -26 55 -56 117 -66 138 -10
22 -19 49 -19 60 -1 19 -3 17 -14 -8 -14 -30 -16 -29 -29 15 -2 8 0 23 5 32
13 26 -18 68 -49 68 -13 0 -22 -4 -18 -9 3 -5 1 -12 -5 -16 -5 -3 -10 -1 -10
4 0 7 -23 11 -54 11 -43 0 -56 4 -60 18 -7 23 -14 168 -22 412 -3 113 -12 255
-20 315 -18 143 -18 151 7 174 12 11 18 24 14 30 -11 19 -13 90 -21 741 -7
596 -6 638 11 673 23 50 75 94 127 108 33 8 298 7 1113 -5 1183 -18 2066 -26
1993 -19 -27 2 -48 8 -48 14 0 9 14 13 39 10 7 -2 20 0 29 4 13 5 14 8 3 14
-10 7 -9 10 3 14 9 4 16 3 16 -2 0 -5 9 -11 19 -14 13 -3 32 6 56 28 l37 32
116 -1 c65 -1 123 -5 130 -9z m-1008 -67 c0 -5 -15 -10 -32 -9 -28 0 -30 2
-13 9 28 12 45 12 45 0z m-117 -7 c-24 -2 -62 -2 -85 0 -24 2 -5 4 42 4 47 0
66 -2 43 -4z m590 0 c-7 -2 -19 -2 -25 0 -7 3 -2 5 12 5 14 0 19 -2 13 -5z
m-3196 -1910 c-3 -10 -5 -4 -5 12 0 17 2 24 5 18 2 -7 2 -21 0 -30z m356 -707
c17 -13 16 -14 -2 -19 -22 -5 -31 0 -31 20 0 16 10 16 33 -1z m0 -335 c-7 -11
-23 14 -18 29 3 10 1 21 -5 25 -8 5 -7 12 2 23 11 13 14 9 18 -29 3 -24 5 -46
3 -48z m-168 59 c-3 -5 -10 -10 -16 -10 -5 0 -9 5 -9 10 0 6 7 10 16 10 8 0
12 -4 9 -10z m85 -10 c0 -5 -5 -10 -11 -10 -5 0 -7 5 -4 10 3 6 8 10 11 10 2
0 4 -4 4 -10z m-80 -38 c0 -13 -12 -22 -22 -16 -10 6 -1 24 13 24 5 0 9 -4 9
-8z m168 -155 c-3 -48 -20 -53 -29 -7 -8 37 11 87 24 64 4 -8 7 -33 5 -57z
m-89 -4 c-1 -38 -1 -38 -9 -9 -8 27 -6 46 6 46 2 0 4 -17 3 -37z m-112 -15
c-3 -8 -6 -5 -6 6 -1 11 2 17 5 13 3 -3 4 -12 1 -19z m38 -88 c0 -33 -4 -45
-15 -45 -8 0 -18 -4 -22 -10 -4 -5 -8 15 -8 46 0 52 2 56 23 55 19 -1 22 -6
22 -46z m169 -15 c9 -24 -5 -77 -19 -71 -7 2 -17 0 -23 -6 -6 -6 -12 -6 -16 0
-3 5 1 15 9 22 8 7 15 25 15 41 0 31 23 41 34 14z m-4 -115 c0 -24 -4 -30 -17
-28 -10 2 -18 -3 -18 -9 0 -7 4 -13 9 -12 12 1 26 -22 26 -43 0 -11 -8 -18
-20 -18 -20 0 -26 19 -23 77 1 16 -5 23 -24 25 -15 2 -28 9 -31 17 -3 9 1 11
15 7 11 -4 31 -2 44 3 36 15 39 13 39 -19z m-195 -87 l-15 -28 0 50 c0 47 1
48 15 28 13 -19 13 -24 0 -50z m119 31 c15 -6 15 -8 -1 -20 -24 -18 -43 -18
-43 0 0 8 6 17 13 19 6 3 13 6 14 6 1 1 9 -2 17 -5z m56 -83 c0 -5 9 -11 20
-14 25 -6 29 -64 4 -74 -24 -9 -38 11 -25 35 9 18 7 22 -20 31 -17 6 -28 15
-24 21 8 12 45 13 45 1z m620 -101 c0 -5 -4 -10 -10 -10 -5 0 -10 5 -10 10 0
6 5 10 10 10 6 0 10 -4 10 -10z m-586 -53 c-1 -24 -7 -53 -13 -65 -6 -11 -8
-28 -5 -36 7 -18 24 -22 24 -6 0 6 5 10 10 10 6 0 10 -12 10 -27 0 -21 -3 -24
-12 -15 -7 7 -21 11 -32 11 -17 -1 -18 -2 -3 -6 18 -5 19 -6 19 -43 2 -70 -1
-83 -17 -70 -12 10 -14 7 -13 -24 1 -23 6 -36 15 -36 13 0 17 -17 13 -55 -2
-24 2 -21 -42 -29 -24 -4 -38 -3 -38 4 0 5 5 10 11 10 14 0 38 30 39 48 0 6
-11 12 -24 12 -28 0 -44 38 -20 47 24 9 62 73 57 94 -5 19 -33 27 -33 9 0 -5
6 -10 13 -10 8 0 7 -4 -3 -10 -27 -17 -31 -11 -15 27 10 24 12 39 5 41 -14 5
-13 82 1 82 7 0 9 9 6 21 -6 21 18 57 38 58 6 1 10 -17 9 -42z m710 12 c-8
-13 -24 -1 -24 18 0 13 3 13 15 3 8 -7 12 -16 9 -21z m-841 -337 c-6 -24 -18
-28 -29 -10 -4 6 1 17 11 24 23 17 26 14 18 -14z m33 -86 c9 -3 14 -9 11 -12
-10 -11 -47 21 -46 41 0 19 1 19 9 -1 4 -12 16 -24 26 -28z m91 -58 c-3 -7 -5
-2 -5 12 0 14 2 19 5 13 2 -7 2 -19 0 -25z m-27 -58 c0 -5 -4 -10 -9 -10 -6 0
-13 5 -16 10 -3 6 1 10 9 10 9 0 16 -4 16 -10z m-130 -4 c0 -2 -11 -6 -25 -8
-14 -3 -25 -1 -25 3 0 5 11 9 25 9 14 0 25 -2 25 -4z m3781 -629 c-10 -9 -11
-8 -5 6 3 10 9 15 12 12 3 -3 0 -11 -7 -18z m-2645 -178 c6 -10 -11 -29 -26
-29 -3 0 -11 4 -19 9 -17 11 -5 31 19 31 10 0 22 -5 26 -11z m-6 -49 c11 -7 6
-10 -20 -10 -26 0 -31 3 -20 10 8 5 17 10 20 10 3 0 12 -5 20 -10z m1707 -52
c-3 -7 -5 -2 -5 12 0 14 2 19 5 13 2 -7 2 -19 0 -25z m1020 -10 c-3 -7 -5 -2
-5 12 0 14 2 19 5 13 2 -7 2 -19 0 -25z m-1053 -27 c2 -3 0 -24 -4 -46 l-8
-40 -2 45 -2 45 -13 -35 c-13 -33 -14 -34 -14 -8 -1 14 -4 33 -7 41 -4 11 1
13 21 10 14 -3 27 -8 29 -12z m-1567 -53 c-3 -8 -6 -5 -6 6 -1 11 2 17 5 13 3
-3 4 -12 1 -19z m286 -115 c-7 -2 -19 -2 -25 0 -7 3 -2 5 12 5 14 0 19 -2 13
-5z m65 -5 c-7 -19 -38 -22 -38 -4 0 10 9 16 21 16 12 0 19 -5 17 -12z m1102
-28 c0 -5 -4 -10 -10 -10 -5 0 -10 5 -10 10 0 6 5 10 10 10 6 0 10 -4 10 -10z
m-1213 -22 c-3 -8 -6 -5 -6 6 -1 11 2 17 5 13 3 -3 4 -12 1 -19z m70 0 c-3 -8
-6 -5 -6 6 -1 11 2 17 5 13 3 -3 4 -12 1 -19z m1906 8 c22 -22 30 -145 12
-173 -19 -29 -25 -29 -61 2 -16 14 -30 20 -32 15 -6 -17 -42 -11 -43 8 -1 16
-2 16 -6 0 -6 -24 -51 -35 -68 -17 -8 8 -16 31 -19 53 -7 57 -16 56 -16 -2 0
-49 -13 -73 -30 -56 -7 7 -18 63 -20 97 0 14 -20 7 -20 -9 0 -11 -6 -14 -20
-9 -30 9 -25 -14 6 -25 19 -7 25 -16 22 -33 -2 -18 -9 -22 -44 -23 -22 0 -45
-3 -50 -6 -5 -3 -56 -5 -114 -4 -58 1 -109 -1 -115 -4 -17 -12 -55 -19 -55
-10 0 4 -7 10 -15 14 -12 4 -13 2 -6 -12 14 -26 1 -41 -27 -31 -30 11 -42 47
-42 124 0 44 5 68 16 79 21 22 41 20 49 -4 7 -22 20 -26 30 -10 4 6 17 4 36
-5 17 -9 29 -11 29 -5 0 9 20 11 90 9 14 -1 32 -1 40 -1 8 1 92 3 185 6 94 2
182 7 196 11 37 9 61 -18 58 -64 -3 -50 0 -63 10 -56 12 7 4 106 -9 119 -15
15 -12 36 4 36 8 0 21 -6 29 -14z m425 -146 c2 -52 8 -126 14 -165 5 -38 11
-104 12 -145 1 -66 -2 -80 -26 -115 -43 -63 -54 -75 -72 -75 -9 0 -16 -7 -16
-16 0 -19 -51 -40 -146 -60 -92 -19 -201 -11 -277 21 -14 6 -20 2 -24 -14 -5
-20 -6 -21 -20 -4 -14 17 -14 17 -10 -3 4 -19 -1 -22 -34 -27 -58 -8 -120 3
-127 22 -3 9 -10 19 -16 23 -8 5 -7 11 1 19 8 8 17 8 33 -1 14 -7 25 -8 29 -3
3 6 13 13 21 16 8 3 -1 5 -21 5 -20 -1 -40 1 -45 4 -5 3 -45 0 -89 -8 -76 -12
-77 -13 -23 -11 33 1 58 -2 58 -8 1 -16 -71 -22 -274 -22 -105 0 -175 1 -156
3 257 24 300 34 232 49 -61 13 -227 22 -233 13 -6 -10 -280 -3 -324 8 -11 3
-32 1 -45 -5 -22 -8 -22 -10 -5 -11 11 0 27 -5 35 -11 12 -8 11 -9 -5 -5 -84
23 -205 30 -390 24 -11 0 -36 1 -55 2 -47 3 -510 -19 -745 -35 -171 -12 -390
-27 -520 -37 -291 -22 -603 -33 -593 -23 5 5 38 10 75 11 164 7 492 32 523 40
14 4 27 10 30 14 3 4 192 17 420 29 802 43 864 44 1100 29 39 -2 363 13 379
18 16 5 365 26 506 30 429 12 551 18 558 28 5 8 10 7 16 -2 13 -21 95 -5 125
24 21 22 23 31 19 92 -3 48 -1 63 6 51 14 -21 27 -214 15 -206 -6 3 -16 1 -24
-5 -12 -8 -12 -9 3 -4 19 6 24 -10 5 -17 -8 -2 -9 -8 -4 -13 5 -5 15 1 23 14
9 12 23 22 33 22 11 0 24 14 33 39 14 33 15 64 7 212 -11 201 -11 373 -1 319
4 -19 8 -78 9 -130z m-3278 -59 l0 -79 -32 -5 c-18 -3 -37 -1 -42 4 -6 5 -16
3 -24 -3 -11 -10 -17 -9 -27 5 -11 15 -13 16 -19 2 -6 -17 -36 -21 -36 -4 0 8
-4 8 -12 2 -24 -19 -65 -23 -78 -8 -6 8 -9 19 -5 25 3 5 4 10 0 10 -3 0 -10
-11 -15 -25 -7 -17 -17 -25 -34 -25 -14 0 -27 4 -30 8 -9 15 -24 126 -19 139
8 21 34 15 41 -9 l5 -22 8 22 c11 29 39 29 39 0 0 -21 5 -23 48 -23 46 0 49 2
48 25 -1 19 4 25 19 25 16 0 21 -9 26 -40 3 -22 7 -30 8 -17 1 26 26 29 40 5
9 -16 10 -17 11 -1 0 9 9 20 20 23 11 3 20 15 20 26 0 12 7 19 20 19 18 0 20
-7 20 -79z m154 53 c6 -21 9 -24 21 -14 9 8 29 10 49 7 28 -4 35 -2 39 14 7
25 33 24 47 -1 9 -17 14 -18 31 -9 12 6 32 8 45 5 21 -6 24 -12 24 -55 0 -61
-18 -80 -61 -64 -17 7 -31 7 -35 2 -9 -15 -36 -10 -50 9 -13 16 -13 16 -14 0
0 -10 -7 -18 -15 -18 -8 0 -19 -9 -25 -20 -18 -34 -40 -25 -40 17 l0 37 -20
-22 c-23 -24 -59 -29 -78 -10 -7 7 -12 40 -12 80 l0 68 44 0 c39 0 45 -3 50
-26z m-254 1 c0 -8 -7 -15 -15 -15 -8 0 -15 7 -15 15 0 8 7 15 15 15 8 0 15
-7 15 -15z m1650 -21 c0 -8 -7 -14 -15 -14 -10 0 -15 10 -15 26 0 22 2 25 15
14 8 -7 15 -19 15 -26z m1639 -119 c1 -71 -16 -39 -24 46 -9 87 6 141 16 59 4
-30 7 -77 8 -105z m-2679 126 c0 -21 -26 -36 -36 -20 -9 15 3 39 21 39 8 0 15
-9 15 -19z m3 -63 c6 -19 -3 -38 -18 -38 -18 0 -28 17 -21 35 7 18 33 20 39 3z
m-1227 -347 c2 -55 -1 -111 -8 -135 l-11 -41 -13 55 c-10 39 -12 90 -7 173 6
116 6 118 20 80 8 -21 16 -80 19 -132z m617 -108 c-7 -2 -19 -2 -25 0 -7 3 -2
5 12 5 14 0 19 -2 13 -5z m2037 -33 c0 -5 -19 -10 -42 -9 -37 1 -39 2 -18 9
36 12 60 12 60 0z m-175 -10 c3 -5 -1 -10 -10 -10 -9 0 -13 5 -10 10 3 6 8 10
10 10 2 0 7 -4 10 -10z m-160 -10 c-3 -5 -14 -10 -23 -10 -15 0 -15 2 -2 10
20 13 33 13 25 0z m103 3 c-10 -2 -28 -2 -40 0 -13 2 -5 4 17 4 22 1 32 -1 23
-4z m-361 -19 c-3 -3 -12 -4 -19 -1 -8 3 -5 6 6 6 11 1 17 -2 13 -5z"/>
<path d="M1770 9676 c0 -8 5 -18 10 -21 6 -3 10 3 10 14 0 12 -4 21 -10 21 -5
0 -10 -6 -10 -14z"/>
<path d="M1757 8663 c-2 -5 -1 -109 3 -231 5 -159 11 -226 19 -232 15 -9 241
-13 263 -5 14 6 16 31 11 223 -3 119 -10 225 -15 235 -8 15 -25 17 -143 17
-73 0 -136 -3 -138 -7z m182 -78 c16 -8 34 -28 40 -46 9 -27 8 -39 -8 -70 -14
-27 -17 -39 -8 -42 22 -8 -57 -18 -113 -15 -52 4 -53 4 -22 12 18 5 31 11 29
15 -40 74 -42 107 -4 141 25 24 48 25 86 5z m-39 -215 c0 -5 -4 -10 -10 -10
-5 0 -10 5 -10 10 0 6 5 10 10 10 6 0 10 -4 10 -10z"/>
<path d="M2151 8640 c-129 -30 -88 -250 46 -250 82 0 126 45 106 107 -9 25
-14 28 -54 28 -38 0 -44 -3 -47 -22 -3 -19 1 -23 22 -23 29 0 36 -24 10 -34
-36 -14 -74 -6 -90 19 -24 36 -21 95 6 117 29 24 51 23 84 -3 29 -23 59 -19
54 7 -4 21 -45 50 -78 57 -14 2 -40 1 -59 -3z"/>
<path d="M2344 8625 c-3 -8 -2 -63 3 -122 7 -99 10 -108 28 -108 18 0 20 7 21
60 1 33 4 62 7 65 3 3 25 -24 50 -60 34 -49 50 -65 68 -65 l24 0 -3 115 c-4
118 -9 137 -36 127 -11 -4 -16 -24 -18 -71 l-3 -66 -48 70 c-48 70 -80 89 -93
55z"/>
<path d="M2590 8528 c0 -120 6 -142 36 -136 18 3 19 12 15 118 -2 63 -5 118
-8 123 -2 4 -13 7 -24 7 -18 0 -19 -8 -19 -112z"/>
<path d="M2733 8630 c-35 -15 -55 -54 -55 -109 1 -60 12 -82 52 -111 89 -63
202 13 186 124 -9 61 -50 98 -113 102 -26 2 -58 0 -70 -6z m101 -51 c21 -16
26 -29 26 -62 -1 -55 -18 -77 -62 -77 -42 0 -58 16 -65 67 -4 29 0 44 17 66
26 32 48 34 84 6z"/>
<path d="M2934 8626 c-9 -23 4 -36 36 -36 35 0 39 -11 42 -120 3 -67 5 -75 23
-75 18 0 20 8 23 98 l3 97 30 0 c26 0 30 3 27 23 -3 21 -8 22 -91 25 -70 2
-88 0 -93 -12z"/>
<path d="M812 8451 c-8 -5 -6 -174 8 -599 16 -535 20 -595 36 -613 25 -28 50
-23 80 16 l27 36 -12 427 c-18 614 -22 666 -50 696 -26 28 -73 47 -89 37z"/>
<path d="M4022 8434 c-48 -20 -65 -67 -58 -163 4 -42 11 -236 16 -431 6 -195
13 -393 16 -440 6 -83 7 -86 45 -122 22 -21 49 -38 60 -38 20 0 21 4 15 103
-8 122 -36 922 -36 1023 0 81 -8 90 -58 68z"/>
<path d="M2173 8373 c-7 -3 -13 -12 -13 -21 -1 -15 -2 -15 -11 1 -11 19 -34
23 -45 6 -3 -6 -1 -16 5 -22 8 -8 11 -6 11 6 0 9 4 17 9 17 5 0 7 -9 4 -19 -4
-17 -1 -19 23 -16 16 2 34 4 41 4 6 1 14 9 16 19 4 15 5 15 6 1 0 -9 7 -19 15
-22 10 -4 12 0 9 14 -3 10 0 19 6 19 6 0 11 -8 11 -18 0 -11 7 -18 20 -18 12
0 20 7 20 18 0 12 -11 19 -37 23 -21 3 -47 8 -58 10 -11 1 -26 1 -32 -2z"/>
<path d="M2318 8345 c-3 -14 -1 -25 3 -25 5 0 9 5 9 11 0 5 4 7 10 4 12 -7 53
19 43 28 -3 4 -19 7 -34 7 -21 0 -28 -6 -31 -25z"/>
<path d="M2428 8359 c-10 -6 -10 -11 0 -21 9 -9 12 -9 12 5 0 9 5 17 10 17 6
0 10 -8 10 -19 0 -14 6 -17 24 -14 13 3 26 13 29 23 4 14 -2 17 -33 17 -21 0
-44 -3 -52 -8z"/>
<path d="M2564 8361 c-2 -2 -4 -10 -4 -17 0 -15 66 -24 80 -10 7 7 10 6 10 -2
0 -7 7 -12 15 -12 9 0 15 9 15 24 0 22 -4 23 -56 22 -30 0 -57 -2 -60 -5z"/>
<path d="M2706 8355 c4 -8 10 -15 14 -15 4 0 10 7 14 15 4 10 -1 15 -14 15
-13 0 -18 -5 -14 -15z"/>
<path d="M2780 8350 c6 -11 13 -20 15 -20 3 0 5 9 5 20 0 11 -7 20 -15 20 -13
0 -14 -4 -5 -20z"/>
<path d="M2817 8350 c3 -11 7 -20 9 -20 2 0 4 9 4 20 0 11 -4 20 -9 20 -5 0
-7 -9 -4 -20z"/>
<path d="M2862 8350 c0 -14 2 -19 5 -12 2 6 2 18 0 25 -3 6 -5 1 -5 -13z"/>
<path d="M2887 8354 c4 -11 9 -12 19 -3 11 9 15 8 20 -5 8 -20 34 -21 34 -1 0
8 7 15 15 15 8 0 15 -7 15 -15 0 -8 9 -15 19 -15 11 0 26 -3 35 -6 12 -5 16 0
16 17 0 23 -3 24 -89 26 -74 1 -89 -1 -84 -13z"/>
<path d="M3072 8349 c2 -12 11 -23 21 -25 25 -3 19 40 -6 44 -14 3 -18 -1 -15
-19z"/>
<path d="M2751 8344 c0 -11 3 -14 6 -6 3 7 2 16 -1 19 -3 4 -6 -2 -5 -13z"/>
<path d="M3055 8031 c-2 -4 0 -13 6 -21 5 -8 9 -32 9 -52 0 -42 17 -60 24 -26
17 82 15 96 -10 101 -13 2 -26 1 -29 -2z"/>
<path d="M3132 8026 c-5 -6 -7 -33 -4 -59 4 -50 18 -65 49 -53 14 6 14 8 -3
21 -16 12 -17 16 -5 24 12 8 13 12 1 26 -11 13 -10 18 5 29 17 12 16 13 -8 18
-15 3 -31 0 -35 -6z"/>
<path d="M3340 8015 c0 -14 -4 -25 -10 -25 -5 0 -10 9 -10 20 0 11 -7 20 -15
20 -13 0 -15 -11 -13 -55 3 -54 20 -76 26 -35 2 11 7 20 12 20 5 0 10 -9 12
-20 6 -41 23 -19 26 34 2 41 -1 55 -13 59 -11 5 -15 0 -15 -18z"/>
<path d="M3386 8024 c-9 -22 3 -104 15 -104 5 0 9 8 10 18 0 14 3 13 16 -5 25
-36 33 -27 33 36 0 59 -12 86 -24 55 -6 -15 -8 -15 -25 0 -17 16 -19 16 -25 0z"/>
<path d="M3487 8034 c-4 -4 -7 -31 -7 -61 0 -40 4 -53 15 -54 52 -5 50 -7 50
56 0 57 -1 60 -25 63 -14 2 -29 0 -33 -4z m30 -76 c-2 -13 -4 -5 -4 17 -1 22
1 32 4 23 2 -10 2 -28 0 -40z"/>
<path d="M3568 8030 c-1 -5 -1 -33 1 -61 3 -52 16 -67 48 -55 14 6 14 9 -5 27
-16 14 -22 32 -22 59 0 36 -13 55 -22 30z"/>
<path d="M3647 8034 c-4 -4 -7 -31 -7 -60 0 -55 7 -64 48 -56 21 4 23 9 20 61
-3 52 -5 56 -28 59 -14 2 -29 0 -33 -4z m32 -61 c0 -29 -2 -33 -8 -18 -7 18
-4 55 5 55 2 0 4 -17 3 -37z"/>
<path d="M3724 8025 c-4 -8 -3 -35 0 -59 6 -36 11 -45 31 -48 29 -6 45 8 45
39 0 18 -6 23 -25 23 -14 0 -25 5 -25 11 0 6 8 9 18 7 9 -2 22 3 28 11 9 12
15 4 28 -37 10 -29 21 -52 25 -52 9 0 35 109 28 117 -9 9 -27 -7 -28 -25 0
-14 -2 -14 -8 2 -10 26 -108 35 -117 11z"/>
<path d="M1042 7973 l3 -58 38 -3 c38 -3 38 -3 35 30 -2 25 -8 33 -22 33 -11
0 -21 6 -24 13 -3 9 3 11 23 6 23 -6 26 -4 23 12 -2 14 -13 20 -41 22 l-38 3
3 -58z"/>
<path d="M1130 7976 c0 -57 11 -76 35 -56 9 7 15 8 20 0 15 -24 22 -7 21 48
l-1 57 -37 3 -38 3 0 -55z"/>
<path d="M1225 8020 c-3 -5 -3 -32 1 -60 l7 -50 48 0 c26 0 51 5 54 10 4 7 12
7 25 0 27 -14 30 -13 29 13 -1 43 -25 92 -45 92 -15 0 -21 -11 -30 -50 -9 -41
-14 -49 -30 -47 -28 6 -31 12 -11 27 15 11 15 14 2 25 -19 16 -19 30 0 30 8 0
15 5 15 10 0 13 -57 13 -65 0z"/>
<path d="M1400 8021 c0 -6 5 -13 10 -16 6 -3 10 -26 10 -51 0 -32 4 -44 15
-44 11 0 15 12 15 50 0 37 4 50 14 50 11 0 16 -14 18 -47 3 -47 4 -48 38 -50
35 -3 35 -3 13 13 -26 19 -30 34 -8 34 8 0 15 4 15 9 0 5 -7 11 -15 15 -19 7
-20 26 -1 26 8 0 18 5 21 10 4 6 -22 10 -69 10 -42 0 -76 -4 -76 -9z"/>
<path d="M1560 7970 c0 -45 4 -60 14 -60 8 0 17 6 20 13 5 10 7 10 12 0 14
-30 29 -11 28 35 -2 72 -1 72 -39 72 l-35 0 0 -60z m50 26 c0 -3 -4 -8 -10
-11 -5 -3 -10 -1 -10 4 0 6 5 11 10 11 6 0 10 -2 10 -4z"/>
<path d="M1690 7970 c0 -60 10 -75 29 -42 9 16 10 16 16 0 4 -10 14 -18 22
-18 18 0 15 111 -4 118 -7 2 -13 -4 -13 -14 0 -16 -1 -16 -18 -1 -10 10 -22
17 -25 17 -4 0 -7 -27 -7 -60z"/>
<path d="M1787 8024 c-9 -9 -9 -61 -1 -91 5 -18 14 -23 41 -23 l34 0 -3 58
c-3 55 -4 57 -33 60 -17 2 -34 0 -38 -4z m43 -49 c0 -19 -4 -35 -10 -35 -11 0
-14 53 -3 63 11 12 13 8 13 -28z"/>
<path d="M1880 7970 c0 -45 3 -61 13 -57 7 2 12 23 12 57 0 34 -5 55 -12 58
-10 3 -13 -13 -13 -58z"/>
<path d="M1924 8016 c-3 -8 -3 -32 0 -53 3 -21 5 -41 6 -45 0 -5 16 -8 35 -8
l36 0 -3 58 c-3 56 -3 57 -36 60 -22 2 -34 -2 -38 -12z m46 -47 c0 -24 -4 -38
-10 -34 -17 10 -11 75 7 75 2 0 3 -18 3 -41z"/>
<path d="M2037 8022 c-3 -4 -9 -32 -13 -60 -7 -52 0 -64 24 -40 8 8 15 8 27
-2 24 -20 27 -7 12 51 -12 50 -36 74 -50 51z"/>
<path d="M2152 7975 c2 -30 8 -55 13 -55 9 0 10 22 6 93 -1 9 -6 17 -11 17 -7
0 -10 -21 -8 -55z"/>
<path d="M2197 8023 c-16 -15 -3 -113 14 -113 5 0 9 10 10 23 l0 22 16 -22
c25 -36 33 -27 33 37 0 47 -3 60 -15 60 -8 0 -15 -8 -15 -17 -1 -17 -1 -17
-14 0 -14 19 -19 20 -29 10z"/>
<path d="M2288 8013 c-7 -29 2 -51 23 -56 10 -3 19 -11 19 -17 0 -10 -3 -10
-14 -1 -11 9 -16 9 -21 1 -11 -17 9 -32 36 -28 36 5 39 55 5 68 -31 11 -34 23
-6 18 10 -2 19 0 20 5 1 23 -3 27 -29 27 -19 0 -30 -6 -33 -17z"/>
<path d="M2370 8021 c0 -6 5 -13 10 -16 6 -3 10 -24 10 -45 0 -21 5 -42 10
-45 12 -8 17 6 23 68 4 46 4 47 -24 47 -16 0 -29 -4 -29 -9z"/>
<path d="M2452 7974 c2 -36 8 -59 16 -62 10 -3 12 10 10 54 -2 36 -8 59 -16
62 -10 3 -12 -10 -10 -54z"/>
<path d="M2490 8021 c0 -6 5 -13 10 -16 6 -3 10 -24 10 -45 0 -21 5 -42 10
-45 12 -8 17 6 23 68 4 46 4 47 -24 47 -16 0 -29 -4 -29 -9z"/>
<path d="M2572 7974 c3 -58 3 -59 36 -62 34 -3 38 4 33 71 -2 18 3 27 12 27
16 0 27 -29 27 -72 0 -16 5 -28 10 -28 6 0 10 20 10 44 0 25 5 48 10 51 24 15
6 25 -40 24 -53 -2 -55 -5 -51 -61 1 -16 -2 -28 -8 -28 -5 0 -11 19 -13 42 -2
23 -9 43 -16 46 -10 3 -12 -10 -10 -54z"/>
<path d="M2736 7983 c3 -27 7 -54 10 -60 4 -15 54 -18 54 -3 0 6 -7 10 -15 10
-18 0 -20 26 -2 34 10 5 10 7 0 12 -18 8 -16 24 5 40 15 12 13 13 -20 14 l-38
0 6 -47z"/>
<path d="M2857 8023 c-4 -3 -7 -28 -7 -54 0 -48 9 -59 50 -59 22 0 33 38 24
86 -5 29 -10 34 -33 34 -15 0 -31 -3 -34 -7z m43 -48 c0 -13 -4 -27 -10 -30
-6 -4 -10 8 -10 30 0 22 4 34 10 30 6 -3 10 -17 10 -30z"/>
<path d="M2942 7975 c3 -55 19 -79 27 -40 2 11 8 23 14 27 7 4 7 12 -3 23 -11
13 -10 18 6 30 18 13 17 14 -14 15 l-33 0 3 -55z"/>
<path d="M3205 8020 c-7 -11 1 -85 10 -100 9 -15 41 -12 55 5 9 11 10 19 3 26
-8 8 -13 7 -17 0 -14 -22 -26 -10 -26 24 0 34 14 48 23 23 3 -10 7 -10 17 -1
7 6 9 16 6 22 -9 14 -63 15 -71 1z"/>
<path d="M2216 7844 c-11 -30 -6 -83 10 -99 21 -21 29 -13 14 16 -7 12 -10 39
-7 60 5 39 -5 53 -17 23z"/>
<path d="M2805 7800 c0 -33 3 -60 7 -60 11 0 21 67 14 95 -11 44 -21 27 -21
-35z"/>
<path d="M2262 7803 c2 -38 7 -49 23 -52 17 -3 18 -2 5 14 -12 15 -12 19 -2
23 10 3 10 7 0 20 -10 12 -10 16 0 19 16 6 5 23 -14 23 -12 0 -14 -11 -12 -47z"/>
<path d="M2568 7833 c-3 -5 -3 -14 -2 -20 1 -7 2 -22 3 -34 2 -31 21 -12 21
21 0 28 -14 49 -22 33z"/>
<path d="M2726 7831 c-3 -5 -3 -23 0 -40 5 -26 11 -31 33 -30 17 1 20 3 9 6
-12 3 -18 14 -18 33 0 29 -14 48 -24 31z"/>
<path d="M2398 7823 c-18 -5 -24 -36 -12 -67 8 -20 44 -21 44 -1 0 8 5 15 10
15 6 0 10 -7 10 -16 0 -10 7 -14 23 -12 18 2 22 9 20 32 -4 49 -10 57 -36 47
-14 -5 -28 -6 -33 -2 -5 4 -17 6 -26 4z"/>
<path d="M2600 7796 c0 -30 3 -35 23 -34 12 1 28 6 35 11 8 6 12 6 12 -2 0
-11 32 -16 42 -6 3 3 3 16 1 30 -6 27 -30 40 -48 25 -6 -5 -15 -7 -19 -3 -3 4
-15 8 -26 10 -17 2 -20 -3 -20 -31z"/>
<path d="M2320 7790 c0 -35 17 -40 23 -7 l4 22 2 -22 c2 -34 21 -28 21 7 0 25
-4 30 -25 30 -21 0 -25 -5 -25 -30z"/>
<path d="M3879 7706 c-3 -3 -198 -6 -434 -7 -474 -2 -607 -7 -599 -20 3 -5 10
-7 15 -4 5 4 9 0 9 -8 0 -11 9 -13 40 -7 22 4 59 4 83 -1 31 -5 46 -4 58 7 25
22 29 17 29 -35 l0 -49 -69 -1 c-58 -1 -70 2 -74 17 -4 16 -5 16 -6 0 -1 -15
-10 -17 -68 -14 -61 3 -68 6 -74 27 -7 23 -7 23 -8 -3 -1 -16 -5 -28 -11 -28
-5 0 -10 12 -11 28 l-1 27 -7 -25 c-6 -21 -13 -25 -49 -26 -47 -1 -51 9 -33
74 l10 33 -155 -2 c-157 -1 -181 -7 -134 -37 13 -8 20 -8 20 -1 0 5 4 7 10 4
6 -3 10 -22 10 -42 0 -27 -3 -34 -15 -29 -8 3 -15 1 -15 -3 0 -5 -12 -6 -27
-2 -16 4 -41 3 -56 -2 -19 -6 -32 -6 -39 1 -7 7 -16 7 -28 0 -32 -20 -50 -3
-50 47 0 55 23 71 51 36 10 -12 20 -17 23 -12 3 5 15 7 26 4 15 -4 20 0 20 16
0 21 -3 21 -220 21 -140 0 -220 -4 -220 -10 0 -5 4 -10 9 -10 5 0 8 -18 6 -41
-3 -34 -1 -40 14 -37 17 3 21 -1 21 -21 0 -5 -15 -6 -32 -2 -29 6 -33 11 -36
44 -4 51 -22 47 -22 -5 0 -32 -3 -39 -10 -28 -5 8 -10 28 -10 44 0 21 -4 27
-16 22 -9 -3 -20 -6 -25 -6 -5 0 -9 -9 -9 -20 0 -14 6 -20 16 -18 10 2 19 -3
21 -9 7 -19 -26 -28 -48 -14 -12 7 -19 7 -19 1 0 -11 -35 -8 -46 3 -4 4 -13 2
-20 -4 -10 -8 -15 -8 -19 2 -8 24 10 84 25 84 7 0 18 -16 24 -35 l10 -35 5 35
c3 19 12 35 19 36 27 2 32 4 32 13 0 6 -152 9 -372 8 l-373 -2 0 -70 c0 -70 0
-70 29 -73 35 -4 58 14 36 28 -8 5 -23 7 -32 4 -14 -4 -18 1 -18 23 0 38 10
73 21 73 5 0 15 -11 21 -25 10 -22 12 -23 23 -9 9 13 16 14 31 6 11 -6 25 -7
31 -4 6 4 47 6 90 4 43 -1 83 -2 88 -2 65 3 97 8 107 18 21 21 28 13 28 -37
l0 -49 -47 0 c-27 1 -52 6 -56 12 -6 8 -10 7 -14 -1 -7 -18 -24 -16 -39 5 -13
16 -13 16 -14 -1 0 -28 -44 -18 -48 11 -4 27 -22 19 -22 -9 0 -11 -4 -18 -9
-15 -14 9 -41 -4 -41 -20 0 -11 24 -14 118 -14 66 0 153 3 195 6 l77 7 -1 31
c0 29 -1 29 -9 9 -14 -35 -46 -29 -54 8 -10 50 -7 69 9 69 8 0 15 -4 15 -9 0
-5 18 -12 40 -16 34 -6 40 -10 40 -32 0 -13 -5 -34 -11 -45 l-11 -21 1113 8
c613 4 1134 8 1159 9 l45 1 3 64 c2 45 -1 67 -10 72 -15 10 -23 11 -29 5z
m-458 -30 c21 2 28 -2 31 -19 7 -38 -6 -72 -27 -72 -16 0 -21 8 -23 38 -4 47
-22 49 -22 2 0 -19 -4 -35 -10 -35 -5 0 -10 16 -10 35 0 19 -4 35 -9 35 -13 0
-20 -25 -14 -49 4 -16 1 -21 -13 -22 -11 0 -27 -2 -36 -4 -10 -2 -21 1 -24 6
-3 6 -11 5 -20 -2 -12 -9 -14 -5 -14 24 0 70 31 94 46 35 l8 -33 3 31 c4 28 8
31 40 32 20 1 38 4 41 7 3 3 10 1 16 -3 6 -5 23 -7 37 -6z m351 -18 c49 -2 92
0 94 4 9 15 44 -5 44 -26 0 -30 -11 -42 -42 -44 -20 -1 -28 3 -28 15 0 15 -1
15 -12 1 -11 -14 -32 -16 -121 -15 -59 1 -108 -2 -110 -7 -2 -5 -13 -6 -25 -2
-17 6 -22 15 -22 41 l0 34 52 -1 c39 0 54 4 62 19 9 16 11 16 14 1 3 -14 19
-17 94 -20z m-1142 -32 c0 -35 -4 -45 -19 -49 -11 -3 -22 -2 -26 1 -8 8 -45
10 -45 2 0 -5 -25 -6 -67 -1 -14 1 -19 70 -5 72 4 0 33 2 65 3 31 1 62 7 69
14 18 18 28 4 28 -42z m903 -4 c4 -30 2 -42 -6 -39 -7 2 -13 26 -15 53 -4 60
13 49 21 -14z m-1513 36 c3 -4 37 -9 75 -11 64 -3 70 -5 73 -26 6 -40 -30 -60
-67 -37 -8 5 -16 4 -20 -3 -7 -11 -65 -10 -77 2 -3 3 -12 3 -20 0 -11 -4 -14
5 -14 40 0 41 2 46 23 44 12 0 24 -4 27 -9z m1168 -4 c8 -2 12 -16 10 -36 -3
-30 -6 -33 -38 -34 -40 -1 -50 8 -50 53 0 31 1 32 33 27 17 -3 38 -8 45 -10z"/>
<path d="M3422 7640 c0 -14 2 -19 5 -12 2 6 2 18 0 25 -3 6 -5 1 -5 -13z"/>
<path d="M3632 7628 c6 -18 28 -21 28 -4 0 9 -7 16 -16 16 -9 0 -14 -5 -12
-12z"/>
<path d="M3711 7624 c0 -11 3 -14 6 -6 3 7 2 16 -1 19 -3 4 -6 -2 -5 -13z"/>
<path d="M1780 7680 c0 -5 20 -10 45 -10 25 0 45 5 45 10 0 6 -20 10 -45 10
-25 0 -45 -4 -45 -10z"/>
<path d="M2696 7678 c4 -6 10 -25 14 -42 6 -30 7 -30 11 12 4 36 2 42 -14 42
-11 0 -15 -4 -11 -12z"/>
<path d="M2810 7670 c0 -11 2 -20 4 -20 2 0 6 9 9 20 3 11 1 20 -4 20 -5 0 -9
-9 -9 -20z"/>
<path d="M2223 7635 c-3 -9 -3 -18 -1 -21 3 -3 8 4 11 16 6 23 -1 27 -10 5z"/>
<path d="M1130 7553 c0 -7 7 -13 15 -13 8 0 15 6 15 13 0 8 -7 14 -15 14 -8 0
-15 -6 -15 -14z"/>
<path d="M2329 7441 c-140 -26 -285 -85 -409 -167 -240 -158 -416 -437 -459
-731 -64 -428 162 -882 544 -1093 87 -48 84 -47 155 -74 201 -76 461 -84 675
-19 166 50 278 110 378 200 121 110 156 152 238 288 151 250 180 589 77 885
-27 77 -109 235 -147 284 -170 214 -355 337 -621 411 -64 18 -359 29 -431 16z
m210 -26 c-3 -2 -39 -11 -80 -20 -89 -19 -186 -53 -294 -105 -44 -21 -100 -44
-124 -50 -29 -8 -62 -28 -97 -62 -87 -82 -103 -141 -59 -213 37 -61 61 -114
83 -182 l20 -63 -41 -28 c-39 -26 -42 -31 -45 -79 -3 -55 6 -77 67 -171 19
-29 39 -52 46 -52 7 0 24 -9 37 -20 14 -10 28 -17 30 -14 7 6 25 -41 32 -84 3
-18 19 -47 36 -64 46 -46 57 -75 65 -170 7 -82 6 -87 -15 -105 -49 -40 -71
-70 -84 -113 -10 -37 -22 -52 -67 -82 -30 -20 -60 -37 -67 -37 -7 -1 -44 -17
-83 -36 -38 -19 -75 -32 -82 -29 -22 8 -119 121 -170 197 -58 88 -101 190
-134 316 -21 80 -25 120 -26 241 0 125 3 160 27 255 109 443 510 769 950 774
44 1 77 -1 75 -4z m371 -340 c14 -8 39 -14 55 -15 42 0 102 -18 119 -35 8 -8
21 -43 29 -77 9 -35 23 -82 31 -105 8 -23 20 -72 26 -110 6 -37 15 -88 20
-113 5 -25 12 -57 15 -72 3 -16 12 -28 20 -28 15 0 19 13 15 63 -1 18 3 27 14
27 22 0 36 32 36 85 0 36 7 56 31 90 26 36 32 56 37 114 2 39 8 71 12 71 12 0
87 -129 114 -197 58 -142 71 -215 71 -403 0 -149 -3 -187 -22 -255 -36 -130
-116 -298 -164 -341 -20 -18 -21 -18 -59 4 -35 20 -80 30 -80 17 0 -3 14 -27
31 -55 l31 -50 -22 -27 c-33 -43 -89 -85 -104 -80 -18 7 -26 62 -26 180 0 62
-5 110 -14 132 -26 60 -56 38 -56 -41 0 -17 -7 -37 -15 -44 -8 -7 -15 -23 -15
-35 0 -13 -7 -36 -15 -51 -8 -16 -15 -36 -15 -45 0 -8 -6 -24 -14 -34 -8 -12
-12 -33 -9 -55 6 -40 -12 -83 -46 -114 -12 -11 -21 -25 -21 -31 0 -21 -41 -41
-130 -64 -95 -24 -136 -26 -228 -10 -58 10 -70 17 -110 57 -24 26 -40 47 -36
48 5 1 21 5 35 8 16 3 33 19 45 41 18 34 37 44 48 26 6 -9 44 -7 121 4 22 4
55 19 73 33 55 45 48 124 -10 109 -25 -7 -58 8 -58 26 0 11 44 43 119 87 11 6
12 12 4 22 -9 10 -7 19 7 38 11 14 20 30 20 36 0 6 19 26 43 44 23 19 48 42
55 52 8 11 20 24 29 31 49 39 113 108 113 122 0 9 4 24 9 33 8 15 4 17 -30 14
-24 -3 -39 -9 -39 -18 0 -7 -9 -18 -20 -24 -11 -6 -20 -17 -20 -25 0 -8 -7
-15 -15 -15 -8 0 -15 -8 -15 -19 0 -20 -95 -83 -141 -94 -42 -10 -128 8 -150
32 -11 11 -22 21 -25 21 -8 0 -49 -25 -57 -35 -4 -6 -13 -3 -22 9 -8 11 -27
27 -42 37 -20 13 -27 27 -29 54 -1 19 -9 44 -19 55 -11 13 -15 25 -10 37 5 10
7 22 6 26 -1 5 9 8 21 6 13 -1 40 6 60 15 52 22 166 21 266 -5 62 -15 86 -18
102 -9 25 13 26 32 2 53 -18 16 -97 39 -106 30 -8 -9 -146 -9 -146 0 0 4 9 7
20 7 14 0 20 7 20 23 0 15 9 26 30 35 33 15 37 26 16 48 -10 10 -38 14 -88 14
-106 0 -110 5 -99 112 13 134 54 184 117 143 35 -22 110 -44 133 -38 23 6 39
-16 20 -28 -11 -8 -10 -12 6 -25 47 -35 115 -30 115 10 0 29 16 36 69 29 70
-10 96 40 45 84 -15 13 -24 29 -21 37 13 32 -67 56 -189 56 -75 0 -98 -4 -144
-26 -65 -30 -91 -28 -199 16 -40 16 -79 30 -86 30 -8 0 -26 5 -41 10 -26 10
-26 11 -9 30 10 11 24 20 32 20 7 0 13 4 13 9 0 4 21 16 48 26 26 10 54 23 62
30 34 29 119 67 170 76 162 30 198 32 230 14z m-805 -335 c3 -5 -1 -20 -8 -32
-18 -28 -17 -122 1 -140 6 -6 12 -20 12 -30 0 -10 5 -18 10 -18 6 0 10 9 10
20 0 35 56 61 115 54 30 -3 80 1 124 10 41 9 75 15 76 13 24 -65 20 -110 -16
-200 -15 -36 -71 -62 -134 -62 -52 0 -72 11 -94 53 -12 23 -41 30 -41 10 -1
-8 -6 -6 -14 5 -7 9 -25 17 -39 17 -20 0 -24 -4 -20 -20 3 -12 0 -20 -6 -20
-7 0 -10 4 -6 9 3 5 -4 13 -16 16 -19 6 -20 12 -14 53 5 26 8 66 9 90 1 24 7
46 15 51 9 6 10 11 2 15 -14 9 -15 66 -1 66 6 0 10 11 10 25 0 25 14 33 25 15z"/>
<path d="M2536 6223 c-14 -14 9 -23 57 -22 36 0 46 3 32 8 -32 13 -82 21 -89
14z"/>
<path d="M4134 6522 c-17 -2 -23 -12 -28 -50 -9 -70 -58 -224 -105 -332 -67
-152 -143 -272 -269 -424 -83 -99 -95 -111 -136 -143 -16 -13 -24 -23 -19 -23
5 0 14 5 20 11 6 6 20 8 32 4 17 -5 21 -15 21 -46 0 -41 24 -57 33 -21 4 16 5
16 6 0 0 -10 8 -18 16 -18 10 0 15 -10 15 -30 0 -19 -5 -30 -14 -30 -12 0 -26
-20 -26 -37 0 -3 17 -4 38 -1 20 3 48 2 62 -2 24 -7 24 -8 5 -16 -11 -4 -26
-14 -33 -21 -7 -7 -28 -14 -45 -14 -24 -1 -26 -3 -9 -6 15 -3 22 -11 22 -28 0
-35 17 -39 23 -5 8 37 35 52 73 40 27 -8 27 -8 -13 -9 -31 -1 -43 -5 -43 -16
0 -18 47 -65 65 -65 20 0 19 -20 -2 -35 -14 -10 -15 -16 -5 -28 10 -11 9 -17
-3 -27 -21 -17 -19 -48 5 -62 17 -11 20 -24 20 -90 0 -45 4 -78 10 -78 6 0 10
-18 10 -39 0 -37 2 -40 33 -44 31 -4 31 -4 -6 -5 -21 -1 -44 -8 -51 -15 -15
-15 -3 -15 206 -15 146 0 178 -5 178 -27 0 -7 7 -15 15 -19 11 -4 14 0 11 17
-3 12 -7 78 -10 147 -3 69 -15 303 -26 520 -11 217 -24 547 -29 734 -5 186
-13 342 -18 345 -4 4 -18 5 -29 3z m-474 -942 c0 -5 -4 -10 -10 -10 -5 0 -10
5 -10 10 0 6 5 10 10 10 6 0 10 -4 10 -10z"/>
<path d="M4202 6179 c4 -292 7 -340 21 -362 13 -21 14 -27 3 -36 -9 -8 -12
-33 -10 -83 3 -69 8 -171 19 -444 2 -66 7 -147 10 -180 4 -50 11 -140 18 -244
2 -24 4 -25 86 -28 58 -2 87 1 92 9 4 7 5 42 3 78 -2 36 -10 179 -19 316 -8
138 -16 288 -18 335 -2 47 -6 159 -10 250 -15 354 -26 657 -27 693 l0 38 -86
-2 -85 -3 3 -337z m38 297 c0 -8 -4 -17 -9 -21 -12 -7 -24 12 -16 25 9 15 25
12 25 -4z m15 -1066 c3 -5 1 -10 -4 -10 -6 0 -11 5 -11 10 0 6 2 10 4 10 3 0
8 -4 11 -10z m49 -352 c13 -22 3 -32 -23 -23 -25 8 -29 48 -5 43 9 -2 22 -11
28 -20z"/>
<path d="M3545 5531 c-3 -5 0 -13 6 -16 5 -4 8 -13 5 -21 -3 -8 0 -14 8 -14
21 0 24 10 12 35 -12 26 -21 31 -31 16z"/>
<path d="M3669 5438 c-6 -21 -5 -38 2 -38 5 0 9 9 9 20 0 16 -7 28 -11 18z"/>
<path d="M1726 5336 c-28 -13 -27 -13 26 -12 51 0 53 1 30 13 -13 7 -25 13
-26 12 0 0 -14 -6 -30 -13z"/>
<path d="M3720 5210 c0 -5 5 -10 11 -10 5 0 7 5 4 10 -3 6 -8 10 -11 10 -2 0
-4 -4 -4 -10z"/>
<path d="M1550 4909 c0 -5 5 -7 10 -4 6 3 10 8 10 11 0 2 -4 4 -10 4 -5 0 -10
-5 -10 -11z"/>
<path d="M3647 4723 c-11 -10 -8 -51 4 -59 7 -4 9 2 7 17 -2 17 4 27 22 36
l25 13 -26 0 c-14 0 -29 -3 -32 -7z"/>
<path d="M3417 4713 c-15 -4 -18 -14 -16 -61 2 -62 7 -82 18 -82 5 0 5 19 1
43 -7 51 1 92 20 92 20 0 33 -59 21 -101 -7 -26 -7 -34 2 -31 16 5 21 115 6
133 -12 14 -20 15 -52 7z"/>
<path d="M3530 4698 c0 -21 1 -21 13 -3 8 10 19 15 25 11 20 -12 13 -49 -15
-80 l-28 -29 38 28 c38 28 41 34 31 73 -9 32 -64 32 -64 0z"/>
<path d="M3290 4701 c0 -4 11 -6 25 -3 21 4 25 1 25 -21 0 -14 -7 -32 -15 -41
-25 -25 -17 -31 10 -6 24 22 27 42 12 68 -9 14 -57 17 -57 3z"/>
<path d="M2845 4690 c-3 -5 -1 -10 4 -10 6 0 11 5 11 10 0 6 -2 10 -4 10 -3 0
-8 -4 -11 -10z"/>
<path d="M3008 4673 c5 -21 7 -23 10 -9 2 10 0 22 -6 28 -6 6 -7 0 -4 -19z"/>
<path d="M2717 4684 c-10 -11 -8 -34 3 -34 6 0 10 7 10 15 0 8 7 15 15 15 10
0 15 -10 15 -32 0 -23 3 -29 11 -21 20 20 6 58 -21 61 -14 2 -29 0 -33 -4z"/>
<path d="M2892 4670 c7 -10 14 -18 15 -16 6 6 -9 36 -18 36 -5 0 -4 -9 3 -20z"/>
<path d="M2223 4665 c-17 -19 -16 -116 0 -140 16 -22 61 -15 71 11 11 27 -4
30 -23 5 -16 -21 -19 -21 -24 -6 -9 22 -9 125 0 125 3 0 15 -7 25 -17 16 -14
18 -15 18 0 0 30 -47 45 -67 22z"/>
<path d="M2351 4671 c-7 -5 -15 -21 -16 -36 -3 -22 2 -29 26 -38 20 -8 29 -18
29 -34 0 -28 -20 -41 -32 -19 -11 20 -30 12 -21 -9 7 -19 57 -19 73 0 18 22 4
62 -28 77 -30 15 -36 41 -9 46 9 2 17 -2 17 -8 0 -6 5 -8 10 -5 6 3 10 13 10
21 0 16 -37 19 -59 5z"/>
<path d="M2453 4647 c-1 -72 8 -117 23 -117 10 0 14 6 10 18 -14 53 -17 66 -9
55 5 -7 14 -9 22 -4 10 6 9 10 -4 15 -13 5 -16 14 -12 34 4 22 2 28 -12 29
-14 1 -18 -6 -18 -30z"/>
<path d="M2574 4606 c1 -41 4 -72 9 -69 10 6 9 131 -2 137 -4 3 -8 -28 -7 -68z"/>
<path d="M2950 4669 c0 -5 5 -7 10 -4 6 3 10 8 10 11 0 2 -4 4 -10 4 -5 0 -10
-5 -10 -11z"/>
<path d="M3129 4625 c-5 -60 -4 -73 7 -63 3 3 4 32 2 64 l-3 59 -6 -60z"/>
<path d="M3693 4667 c17 -46 18 -64 2 -77 -13 -11 -18 -10 -31 6 -14 19 -15
19 -12 -1 2 -15 11 -20 33 -20 28 0 30 3 33 41 2 29 -2 45 -14 55 -16 12 -17
12 -11 -4z"/>
<path d="M2057 4663 c-4 -3 -7 -19 -7 -35 0 -18 -5 -28 -15 -28 -10 0 -15 10
-15 30 0 20 -5 30 -15 30 -12 0 -15 -15 -15 -75 0 -60 3 -75 15 -75 10 0 15
10 15 29 0 29 15 49 27 37 3 -3 6 -18 7 -33 1 -18 7 -29 19 -31 19 -4 21 16
11 106 -7 50 -13 60 -27 45z"/>
<path d="M2142 4658 c-15 -15 -16 -87 -2 -122 11 -29 30 -36 24 -8 -9 37 -10
98 -2 114 10 21 -4 32 -20 16z"/>
<path d="M1773 4654 c-12 -5 -7 -142 6 -156 8 -10 51 2 51 13 0 5 -7 9 -15 9
-9 0 -15 9 -15 25 0 16 6 25 15 25 8 0 15 5 15 11 0 5 -4 8 -9 4 -12 -7 -34
32 -26 45 3 6 13 10 21 10 8 0 12 5 9 10 -6 10 -31 12 -52 4z"/>
<path d="M1877 4653 c-9 -8 -9 -116 -1 -137 7 -17 74 -23 74 -7 0 5 3 16 6 25
4 10 1 16 -9 16 -9 0 -17 -9 -19 -20 -6 -36 -25 -6 -31 48 -5 43 -3 54 9 59 9
3 20 0 24 -8 11 -17 24 -5 17 16 -6 15 -57 21 -70 8z"/>
<path d="M1534 4635 c-8 -19 0 -142 8 -151 4 -3 24 -2 45 3 41 9 56 41 33 69
-10 11 -10 17 0 29 10 12 10 21 2 40 -9 20 -19 25 -47 25 -23 0 -38 -6 -41
-15z m61 -30 c0 -28 -29 -25 -33 3 -3 19 0 23 15 20 10 -2 18 -12 18 -23z m3
-72 c-2 -17 -10 -29 -20 -31 -14 -3 -18 3 -18 27 0 25 4 31 21 31 16 0 20 -5
17 -27z"/>
<path d="M1650 4640 c0 -5 7 -10 15 -10 11 0 15 -16 17 -67 4 -86 22 -88 26
-3 2 35 8 70 14 77 8 10 2 13 -31 13 -22 0 -41 -4 -41 -10z"/>
<path d="M2985 4610 c-3 -5 -1 -10 4 -10 6 0 11 5 11 10 0 6 -2 10 -4 10 -3 0
-8 -4 -11 -10z"/>
<path d="M2727 4592 c-30 -33 -22 -52 21 -51 30 2 32 3 10 6 -35 5 -38 35 -5
51 15 7 17 11 6 11 -9 1 -23 -7 -32 -17z"/>
<path d="M2830 4596 c0 -8 5 -18 10 -21 6 -3 10 1 10 9 0 8 -4 18 -10 21 -5 3
-10 -1 -10 -9z"/>
<path d="M2958 4594 c-3 -12 -2 -28 3 -35 12 -20 16 -8 9 26 -5 27 -6 28 -12
9z"/>
<path d="M2901 4574 c0 -11 3 -14 6 -6 3 7 2 16 -1 19 -3 4 -6 -2 -5 -13z"/>
<path d="M3525 4581 c3 -6 22 -11 42 -11 44 0 41 5 -10 14 -27 5 -37 4 -32 -3z"/>
<path d="M3308 4563 c12 -2 30 -2 40 0 9 3 -1 5 -23 4 -22 0 -30 -2 -17 -4z"/>
<path d="M2845 4550 c3 -5 14 -10 23 -10 15 0 15 2 2 10 -20 13 -33 13 -25 0z"/>
<path d="M2505 4530 c-3 -5 -1 -10 4 -10 6 0 11 5 11 10 0 6 -2 10 -4 10 -3 0
-8 -4 -11 -10z"/>
<path d="M4521 4454 c0 -11 3 -14 6 -6 3 7 2 16 -1 19 -3 4 -6 -2 -5 -13z"/>
<path d="M1536 4345 c4 -8 8 -15 10 -15 2 0 4 7 4 15 0 8 -4 15 -10 15 -5 0
-7 -7 -4 -15z"/>
<path d="M1678 4128 c5 -7 12 -24 14 -38 4 -25 4 -25 21 6 16 31 16 32 -3 27
-11 -3 -20 0 -20 6 0 6 -5 11 -11 11 -8 0 -8 -4 -1 -12z"/>
<path d="M3676 4099 c-11 -10 -16 -22 -13 -25 4 -4 19 5 33 19 16 16 21 27 13
26 -8 0 -23 -9 -33 -20z"/>
<path d="M3720 4092 c-13 -10 -21 -24 -19 -31 3 -8 13 -4 32 13 41 38 30 53
-13 18z"/>
<path d="M3845 4102 c-44 -15 -85 -47 -80 -61 3 -9 3 -12 -1 -8 -9 8 -49 -75
-59 -122 -6 -27 -4 -32 6 -25 12 7 12 5 1 -9 -12 -14 -11 -21 4 -47 17 -28 54
-42 54 -20 0 6 7 10 15 10 13 0 15 7 9 35 -9 50 22 132 54 140 13 3 32 3 43 0
23 -8 34 -61 20 -98 -6 -16 -8 -39 -5 -53 6 -23 7 -23 19 -7 11 14 17 15 39 5
14 -6 28 -23 32 -37 8 -33 22 -28 46 16 29 52 21 142 -17 196 -43 59 -132 101
-180 85z m-25 -36 c0 -3 -4 -8 -10 -11 -5 -3 -10 -1 -10 4 0 6 5 11 10 11 6 0
10 -2 10 -4z m-63 -88 c-3 -8 -6 -5 -6 6 -1 11 2 17 5 13 3 -3 4 -12 1 -19z
m13 -22 c0 -3 -4 -8 -10 -11 -5 -3 -10 -1 -10 4 0 6 5 11 10 11 6 0 10 -2 10
-4z"/>
<path d="M1753 4073 c-3 -10 -8 -21 -10 -25 -2 -5 7 -8 20 -8 28 0 45 29 25
42 -20 12 -28 10 -35 -9z"/>
<path d="M3690 4025 c-6 -8 -10 -19 -8 -26 2 -6 9 0 16 15 13 29 10 33 -8 11z"/>
<path d="M3580 3975 c-10 -12 -10 -15 4 -15 9 0 16 7 16 15 0 8 -2 15 -4 15
-2 0 -9 -7 -16 -15z"/>
<path d="M3852 3943 c-18 -19 -34 -75 -24 -85 16 -16 43 29 40 65 -3 30 -5 33
-16 20z"/>
<path d="M3666 3795 c4 -23 2 -35 -5 -35 -47 0 56 -112 120 -130 38 -11 95 -4
105 12 3 5 3 50 -1 99 -5 65 -10 87 -19 81 -6 -5 -35 -18 -63 -31 -61 -25 -94
-21 -113 15 -19 35 -32 29 -24 -11z"/>
<path d="M3930 3790 c-6 -11 -10 -48 -8 -83 l3 -62 39 36 40 36 -18 47 c-19
49 -39 58 -56 26z"/>
<path d="M2206 3745 c-9 -24 -6 -26 55 -29 30 -2 39 -1 20 1 -19 2 -42 14 -51
25 -16 20 -17 20 -24 3z"/>
<path d="M2370 3716 c0 -2 7 -6 15 -10 8 -3 15 -1 15 4 0 6 -7 10 -15 10 -8 0
-15 -2 -15 -4z"/>
<path d="M3191 3624 c0 -11 3 -14 6 -6 3 7 2 16 -1 19 -3 4 -6 -2 -5 -13z"/>
<path d="M3215 3630 c3 -5 8 -10 11 -10 2 0 4 5 4 10 0 6 -5 10 -11 10 -5 0
-7 -4 -4 -10z"/>
<path d="M2792 3520 c0 -14 2 -19 5 -12 2 6 2 18 0 25 -3 6 -5 1 -5 -13z"/>
<path d="M2880 3506 c0 -9 6 -16 13 -16 16 0 46 20 30 20 -6 0 -18 3 -27 6
-11 4 -16 1 -16 -10z"/>
<path d="M2530 3439 c0 -5 5 -7 10 -4 6 3 10 8 10 11 0 2 -4 4 -10 4 -5 0 -10
-5 -10 -11z"/>
<path d="M2410 3420 c0 -5 -7 -10 -17 -10 -19 0 -9 -13 12 -16 9 -1 15 6 15
17 0 10 -2 19 -5 19 -3 0 -5 -4 -5 -10z"/>
<path d="M2247 3356 c-4 -10 -5 -21 -2 -24 9 -9 17 6 13 25 -3 17 -4 17 -11
-1z"/>
<path d="M3510 3472 c0 -29 4 -52 9 -52 10 0 6 88 -3 98 -3 3 -6 -18 -6 -46z"/>
<path d="M3810 3506 c0 -2 7 -6 15 -10 8 -3 15 -1 15 4 0 6 -7 10 -15 10 -8 0
-15 -2 -15 -4z"/>
<path d="M3820 3460 c-13 -8 -12 -10 3 -10 9 0 17 5 17 10 0 12 -1 12 -20 0z"/>
<path d="M2960 2949 c0 -5 5 -7 10 -4 6 3 10 8 10 11 0 2 -4 4 -10 4 -5 0 -10
-5 -10 -11z"/>
<path d="M4515 2950 c-3 -5 -1 -10 4 -10 6 0 11 5 11 10 0 6 -2 10 -4 10 -3 0
-8 -4 -11 -10z"/>
<path d="M3715 2910 c-3 -5 3 -10 15 -10 12 0 18 5 15 10 -3 6 -10 10 -15 10
-5 0 -12 -4 -15 -10z"/>
<path d="M1468 2903 c18 -2 45 -2 60 0 15 2 0 4 -33 4 -33 0 -45 -2 -27 -4z"/>
<path d="M1091 3354 c0 -11 3 -14 6 -6 3 7 2 16 -1 19 -3 4 -6 -2 -5 -13z"/>
<path d="M1182 3340 c0 -14 2 -19 5 -12 2 6 2 18 0 25 -3 6 -5 1 -5 -13z"/>
<path d="M1682 3375 c0 -16 2 -22 5 -12 2 9 2 23 0 30 -3 6 -5 -1 -5 -18z"/>
</g>
</svg>
